<svg xmlns="http://www.w3.org/2000/svg" viewBox="0 0 163.51 72.77"><defs><style>.cls-1{font-size:24.31px;font-family:SegoeUI-Semibold, Segoe UI;letter-spacing:0.06em;}.cls-1,.cls-5,.cls-6{fill:#231f20;}.cls-1,.cls-6{font-weight:700;}.cls-2{letter-spacing:0.04em;}.cls-3{letter-spacing:0.04em;}.cls-4{letter-spacing:0em;}.cls-6{font-size:33.4px;font-family:SegoeUI-Bold, Segoe UI;}.cls-7{letter-spacing:-0.01em;}</style></defs><title>pnp-core-library-bw</title><g id="Layer_2" data-name="Layer 2"><g id="Layer_1-2" data-name="Layer 1"><text class="cls-1" transform="translate(38.35 62.4)">L<tspan class="cls-2" x="11.87" y="0">IBRA</tspan><tspan class="cls-3" x="61.2" y="0">R</tspan><tspan class="cls-4" x="74.96" y="0">Y</tspan></text><path class="cls-5" d="M161.23,42.94V68.76H2.28V42.94h159m2.28-2.28H0V71H163.51V40.66Z"/><path class="cls-5" d="M53.86,14.07h-2V21h2c2.67,0,4-1.17,4-3.49S56.53,14.07,53.86,14.07Z"/><path class="cls-5" d="M15.12,14.07h-2V21h2c2.67,0,4-1.17,4-3.49S17.79,14.07,15.12,14.07Z"/><path class="cls-5" d="M0,0V42.64l70,.11V.12ZM22,22.7a9.54,9.54,0,0,1-6.44,2.06H13.15V32.4h-5V10.24H16q8.4,0,8.41,7.06A6.75,6.75,0,0,1,22,22.7Zm20.54,9.7H37.63V23.6q0-3.68-2.64-3.67a2.62,2.62,0,0,0-2.09,1,3.68,3.68,0,0,0-.82,2.47v9H27.17V16.57h4.91v2.51h.06a5.62,5.62,0,0,1,5.1-2.89q5.28,0,5.28,6.52Zm18.21-9.7a9.57,9.57,0,0,1-6.45,2.06H51.89V32.4h-5V10.24h7.85q8.42,0,8.41,7.06A6.77,6.77,0,0,1,60.73,22.7Z"/><path class="cls-5" d="M161.23,2.4V40.48H70V2.4h91.22M163.51.13H67.73V42.76h95.78V.13Z"/><text class="cls-6" transform="translate(77.74 32.47)"><tspan class="cls-7">C</tspan><tspan x="20.45" y="0">ORE</tspan></text></g></g></svg>