<svg xmlns="http://www.w3.org/2000/svg" viewBox="0 0 163.53 72.77"><defs><style>.cls-1{font-size:24.31px;font-family:SegoeUI-Semibold, Segoe UI;font-weight:700;}.cls-1,.cls-4{fill:#231f20;}.cls-2{letter-spacing:-0.01em;}.cls-3{letter-spacing:-0.01em;}</style></defs><title>pnp-spfx-controls-bw</title><g id="Layer_2" data-name="Layer 2"><g id="Layer_1-2" data-name="Layer 1"><text class="cls-1" transform="translate(29.81 62.4)"><tspan class="cls-2">C</tspan><tspan x="12.17" y="0">ONT</tspan><tspan class="cls-3" x="54.7" y="0">R</tspan><tspan x="67.37" y="0">OLS</tspan></text><path class="cls-4" d="M161.23,42.94V68.76H2.28V42.94h159m2.28-2.28H0V71H163.51V40.66Z"/><path class="cls-4" d="M79.33,32V26.81a10,10,0,0,0,6.38,2.35A7.27,7.27,0,0,0,87.43,29a4.1,4.1,0,0,0,1.23-.49,2.23,2.23,0,0,0,.73-.74,1.83,1.83,0,0,0,.24-.92,2,2,0,0,0-.38-1.21,4.39,4.39,0,0,0-1.06-1,11.59,11.59,0,0,0-1.59-.87c-.62-.28-1.28-.56-2-.85a10.07,10.07,0,0,1-4-2.75,6,6,0,0,1-1.34-3.93A6.14,6.14,0,0,1,80,13.15a6,6,0,0,1,2-2.13,8.73,8.73,0,0,1,2.9-1.23,14.58,14.58,0,0,1,3.49-.4,21.63,21.63,0,0,1,3.2.22,12.49,12.49,0,0,1,2.58.67v4.81a7.42,7.42,0,0,0-1.27-.71,10.33,10.33,0,0,0-1.41-.51,12.89,12.89,0,0,0-1.45-.3,11,11,0,0,0-1.36-.09,6.77,6.77,0,0,0-1.62.17,4.32,4.32,0,0,0-1.23.47,2.35,2.35,0,0,0-.77.73,1.79,1.79,0,0,0-.28,1,1.87,1.87,0,0,0,.31,1,4,4,0,0,0,.87.87,9.52,9.52,0,0,0,1.38.8c.53.26,1.14.53,1.82.81a21.59,21.59,0,0,1,2.5,1.23A9.22,9.22,0,0,1,93.49,22a5.67,5.67,0,0,1,1.21,1.88,6.58,6.58,0,0,1,.42,2.45,6.52,6.52,0,0,1-.73,3.24,6,6,0,0,1-2,2.12,8.79,8.79,0,0,1-2.94,1.17,17.36,17.36,0,0,1-3.52.35,19.23,19.23,0,0,1-3.63-.32A11.1,11.1,0,0,1,79.33,32Z"/><path class="cls-4" d="M104.15,24.9v7.94H98.94V9.78h8.17q8.74,0,8.75,7.35a7.06,7.06,0,0,1-2.51,5.62,10,10,0,0,1-6.71,2.15Zm0-11.13V21h2c2.78,0,4.17-1.22,4.17-3.64s-1.39-3.55-4.17-3.55Z"/><path class="cls-4" d="M132.64,14h-8.17v5.66H132v4.21h-7.51v9h-5.22V9.78h13.39Z"/><path class="cls-4" d="M151.92,16.37l-5.45,8,5.42,8.49H146l-2.39-4.44c-.19-.35-.42-.85-.69-1.49h-.07a9.94,9.94,0,0,1-.66,1.44l-2.4,4.49h-5.87l5.59-8.2-5.25-8.27h5.91L142.54,21a10.22,10.22,0,0,1,.66,1.54h.07A10.46,10.46,0,0,1,144,21l2.41-4.59Z"/><path class="cls-4" d="M53.86,14.07h-2V21h2c2.67,0,4-1.17,4-3.49S56.53,14.07,53.86,14.07Z"/><path class="cls-4" d="M15.12,14.07h-2V21h2c2.67,0,4-1.17,4-3.49S17.79,14.07,15.12,14.07Z"/><path class="cls-4" d="M0,0V42.64l70,.11V.12ZM22,22.7a9.54,9.54,0,0,1-6.44,2.06H13.15V32.4h-5V10.24H16q8.4,0,8.41,7.06A6.75,6.75,0,0,1,22,22.7Zm20.54,9.7H37.63V23.6q0-3.68-2.64-3.67a2.62,2.62,0,0,0-2.09,1,3.68,3.68,0,0,0-.82,2.47v9H27.17V16.57h4.91v2.51h.06a5.62,5.62,0,0,1,5.1-2.89q5.28,0,5.28,6.52Zm18.21-9.7a9.57,9.57,0,0,1-6.45,2.06H51.89V32.4h-5V10.24h7.85q8.42,0,8.41,7.06A6.77,6.77,0,0,1,60.73,22.7Z"/><path class="cls-4" d="M161.25,2.4V40.48H70V2.4h91.21M163.53.13H67.76V42.76h95.77V.13Z"/></g></g></svg>