<svg xmlns="http://www.w3.org/2000/svg" viewBox="0 0 163.12 72.6"><defs><style>.cls-1{font-size:24.25px;font-family:SegoeUI-Semibold, Segoe UI;}.cls-1,.cls-5,.cls-6{fill:#231f20;}.cls-1,.cls-6{font-weight:700;}.cls-2{letter-spacing:0.06em;}.cls-3{letter-spacing:0.04em;}.cls-4{letter-spacing:0.04em;}.cls-6{font-size:33.32px;font-family:SegoeUI-Bold, Segoe UI;}.cls-7{letter-spacing:0.12em;}</style></defs><title>pnp-pnphs-bw</title><g id="Layer_2" data-name="Layer 2"><g id="Layer_1-2" data-name="Layer 1"><text class="cls-1" transform="translate(38.26 62.25)"><tspan class="cls-2">L</tspan><tspan class="cls-3" x="11.84" y="0">IBRA</tspan><tspan class="cls-4" x="61.06" y="0">R</tspan><tspan x="74.78" y="0">Y</tspan></text><path class="cls-5" d="M160.85,42.84V68.6H2.27V42.84H160.85m2.27-2.28H0V70.88H163.12V40.56Z"/><path class="cls-5" d="M53.73,14h-2v6.89h2q4,0,4-3.48C57.73,15.17,56.4,14,53.73,14Z"/><path class="cls-5" d="M15.08,14h-2v6.89h2c2.66,0,4-1.16,4-3.48S17.74,14,15.08,14Z"/><path class="cls-5" d="M0,0V42.54l69.88.11V.12ZM21.93,22.65a9.57,9.57,0,0,1-6.43,2.06H13.12v7.61h-5V10.22H16q8.39,0,8.39,7A6.74,6.74,0,0,1,21.93,22.65Zm20.49,9.67H37.54V23.55c0-2.45-.87-3.67-2.63-3.67a2.62,2.62,0,0,0-2.09,1A3.68,3.68,0,0,0,32,23.32v9H27.11V16.54H32V19h.06a5.63,5.63,0,0,1,5.1-2.88c3.5,0,5.26,2.17,5.26,6.51Zm18.16-9.67a9.55,9.55,0,0,1-6.43,2.06H51.77v7.61h-5V10.22H54.6q8.38,0,8.39,7A6.74,6.74,0,0,1,60.58,22.65Z"/><path class="cls-5" d="M160.85,2.4v38h-91V2.4h91M163.12.13H67.58V42.66h95.54V.13Z"/><text class="cls-6" transform="translate(96.59 32.4)"><tspan class="cls-7">J</tspan><tspan x="18.84" y="0">S</tspan></text></g></g></svg>