<svg xmlns="http://www.w3.org/2000/svg" viewBox="0 0 227.57 93.19"><defs><style>.cls-1{fill:#2e77bc;}</style></defs><title>pnp-team-projects</title><g id="Layer_2" data-name="Layer 2"><g id="Layer_1-2" data-name="Layer 1"><path class="cls-1" d="M62.42,66.35a8,8,0,0,0-5-1.33H51.56v16.8h3.76V75.91h2a9.21,9.21,0,0,0,2.81-.41,6.44,6.44,0,0,0,2.15-1.17,5.19,5.19,0,0,0,1.39-1.8,5.4,5.4,0,0,0,.49-2.29A4.68,4.68,0,0,0,62.42,66.35Zm-3.1,6.2a3.81,3.81,0,0,1-2.51.72H55.32V67.68h1.61a4,4,0,0,1,2.45.63,2.45,2.45,0,0,1,.8,2A2.71,2.71,0,0,1,59.32,72.55Z"/><path class="cls-1" d="M77.52,75a3.78,3.78,0,0,0-1.29-.84v0a6.92,6.92,0,0,0,1.63-.64,4.89,4.89,0,0,0,1.27-1A4.5,4.5,0,0,0,80,71.17a4.35,4.35,0,0,0,.3-1.64,3.85,3.85,0,0,0-1.63-3.35A7.91,7.91,0,0,0,74,65H67.79v16.8h3.77V75.27h.84a2.73,2.73,0,0,1,.72.09,1.77,1.77,0,0,1,.62.33,3.66,3.66,0,0,1,.6.63,9,9,0,0,1,.62,1l2.6,4.54H82L78.7,76.55A9.25,9.25,0,0,0,77.52,75Zm-2.17-3.09a3.35,3.35,0,0,1-1.11.52,5.84,5.84,0,0,1-1.43.17H71.56v-5h1.73a4.17,4.17,0,0,1,2.27.5,1.87,1.87,0,0,1,.76,1.72,2.58,2.58,0,0,1-.26,1.22A2.38,2.38,0,0,1,75.35,71.94Z"/><path class="cls-1" d="M99.5,67.16a7.86,7.86,0,0,0-2.67-1.78,9.09,9.09,0,0,0-3.5-.64,10.24,10.24,0,0,0-3.75.65,8,8,0,0,0-2.81,1.84A8.17,8.17,0,0,0,85,70a10.13,10.13,0,0,0-.61,3.59A9.15,9.15,0,0,0,85,77.07a7.74,7.74,0,0,0,4.49,4.43,9.73,9.73,0,0,0,3.53.61,10,10,0,0,0,3.57-.62,8,8,0,0,0,2.78-1.78,7.81,7.81,0,0,0,1.8-2.78,10,10,0,0,0,.64-3.68,9.38,9.38,0,0,0-.6-3.4A7.92,7.92,0,0,0,99.5,67.16Zm-1.94,8.76a4.84,4.84,0,0,1-.92,1.81,4,4,0,0,1-1.51,1.13,5.25,5.25,0,0,1-2.08.39,4.54,4.54,0,0,1-2-.41,4.3,4.3,0,0,1-1.5-1.17,5.63,5.63,0,0,1-.93-1.83,8.45,8.45,0,0,1-.32-2.4,8.16,8.16,0,0,1,.34-2.39,5.28,5.28,0,0,1,1-1.84A4.34,4.34,0,0,1,91.14,68a5.31,5.31,0,0,1,4.09,0,3.78,3.78,0,0,1,1.47,1.15A5.3,5.3,0,0,1,97.58,71a9.44,9.44,0,0,1,.3,2.49A8.67,8.67,0,0,1,97.56,75.92Z"/><path class="cls-1" d="M109.19,75.3a4.79,4.79,0,0,1-.73,3,2.61,2.61,0,0,1-2.18.92,3.62,3.62,0,0,1-2.11-.61v3.14a6.76,6.76,0,0,0,2.36.37,8.16,8.16,0,0,0,2.71-.42,5.1,5.1,0,0,0,2-1.26,5.43,5.43,0,0,0,1.26-2.08,8.63,8.63,0,0,0,.44-2.88V65h-3.75Z"/><polygon class="cls-1" points="122.22 74.72 128.03 74.72 128.03 71.94 122.22 71.94 122.22 67.8 128.53 67.8 128.53 65.02 118.45 65.02 118.45 81.82 128.95 81.82 128.95 79.05 122.22 79.05 122.22 74.72"/><path class="cls-1" d="M138.34,65.39a8.74,8.74,0,0,0-3,1.86,8.13,8.13,0,0,0-1.95,2.85,10,10,0,0,0-.09,7.1A7.55,7.55,0,0,0,135,79.83a7.82,7.82,0,0,0,2.77,1.69,10.84,10.84,0,0,0,3.68.59,12.7,12.7,0,0,0,5.22-.93v-3a8.62,8.62,0,0,1-4.39,1.1,6.88,6.88,0,0,1-2.39-.4,5.09,5.09,0,0,1-1.79-1.14A5,5,0,0,1,137,75.9a6.74,6.74,0,0,1-.39-2.35,6.82,6.82,0,0,1,.42-2.46,5.23,5.23,0,0,1,1.2-1.88A5.39,5.39,0,0,1,140.12,68a7,7,0,0,1,2.49-.42,8.28,8.28,0,0,1,4.08,1V65.39a13.28,13.28,0,0,0-4.47-.65A11.16,11.16,0,0,0,138.34,65.39Z"/><polygon class="cls-1" points="149.64 67.88 154.78 67.88 154.78 81.82 158.54 81.82 158.54 67.88 163.67 67.88 163.67 65.02 149.64 65.02 149.64 67.88"/><path class="cls-1" d="M167.58,65.92a4.3,4.3,0,0,0-1.41,1.47,4,4,0,0,0-.52,2,4.46,4.46,0,0,0,1,2.93,8.3,8.3,0,0,0,3.18,2.17c.76.34,1.39.62,1.88.86a7.93,7.93,0,0,1,1.16.68,2.06,2.06,0,0,1,.6.64,1.55,1.55,0,0,1,.17.76,1.62,1.62,0,0,1-.75,1.4,4.25,4.25,0,0,1-2.37.52,6.85,6.85,0,0,1-1.26-.11A7.84,7.84,0,0,1,168,79a7.73,7.73,0,0,1-2.28-1.19v3.38a4.25,4.25,0,0,0,.95.39c.37.11.77.21,1.19.3s.86.15,1.31.19a11.7,11.7,0,0,0,1.3.07,11.54,11.54,0,0,0,2.89-.33,6.5,6.5,0,0,0,2.14-1,4.46,4.46,0,0,0,1.33-1.55,4.69,4.69,0,0,0,.45-2.09A4.9,4.9,0,0,0,177,75.5a4.34,4.34,0,0,0-.85-1.38A6.51,6.51,0,0,0,174.72,73a15.14,15.14,0,0,0-2-1c-.71-.31-1.28-.57-1.73-.79a6.65,6.65,0,0,1-1-.64,1.46,1.46,0,0,1-.65-1.26,1.47,1.47,0,0,1,.81-1.29,4.37,4.37,0,0,1,2.27-.49,8.9,8.9,0,0,1,2.17.27,6.4,6.4,0,0,1,1.92.82V65.36a8.12,8.12,0,0,0-1.77-.47,16.48,16.48,0,0,0-2.39-.15,11.38,11.38,0,0,0-2.6.29A7,7,0,0,0,167.58,65.92Z"/><path class="cls-1" d="M76.17,23c0-3-1.75-4.5-5.27-4.5H68.31v9.1H70.9C74.42,27.62,76.17,26.08,76.17,23Z"/><path class="cls-1" d="M25.17,23q0-4.5-5.27-4.5H17.31v9.1H19.9C23.41,27.62,25.17,26.08,25.17,23Z"/><path class="cls-1" d="M227.57,53.19V0L92.21.16h0L0,0V93.19H227.57v-40ZM92.21,3.16,224.57,3V53.13l-52.83.06H92.21ZM61.71,13.48H72.05q11.07,0,11.07,9.3a8.89,8.89,0,0,1-3.18,7.1,12.61,12.61,0,0,1-8.48,2.72H68.31v10h-6.6ZM35.77,21.82h6.46v3.29h.08A7.41,7.41,0,0,1,49,21.31q6.94,0,6.94,8.58V42.65H49.54V31.07c0-3.22-1.16-4.84-3.47-4.84a3.46,3.46,0,0,0-2.76,1.28,4.89,4.89,0,0,0-1.08,3.26V42.65H35.77ZM10.71,13.48H21.05q11.07,0,11.07,9.3a8.89,8.89,0,0,1-3.18,7.1,12.63,12.63,0,0,1-8.49,2.72H17.31v10h-6.6ZM224.57,90.19H3v-34H39.71l46.83.08v0l85.2-.1h52.83Z"/><polygon class="cls-1" points="104.97 19.03 113.28 19.03 113.28 42.94 119.89 42.94 119.89 19.03 128.25 19.03 128.25 13.66 104.97 13.66 104.97 19.03"/><polygon class="cls-1" points="137.95 30.89 147.52 30.89 147.52 25.54 137.95 25.54 137.95 19.03 148.24 19.03 148.24 13.66 131.35 13.66 131.35 42.94 148.91 42.94 148.91 37.59 137.95 37.59 137.95 30.89"/><path class="cls-1" d="M168.11,13.66h-7.82L149.63,42.94h7.14l2.07-6.52h10.41l2.08,6.52h7.19Zm-7.87,17.7,3.19-9.92a11.5,11.5,0,0,0,.51-2.56h.16a13.26,13.26,0,0,0,.49,2.64l3.15,9.84Z"/><path class="cls-1" d="M187.28,26.75q0-3.27-.27-7.6h.19a37.74,37.74,0,0,0,.92,4.08l7,19.71h5.39L207.35,23a31,31,0,0,0,.92-3.88h.16q-.24,3.44-.24,6.27V42.94h6.51V13.66h-9.41l-6,17.31a42.49,42.49,0,0,0-1.17,4.23H198A24.43,24.43,0,0,0,197,31l-6-17.35h-9.66V42.94h5.94Z"/></g></g></svg>