<svg xmlns="http://www.w3.org/2000/svg" viewBox="0 0 163 70.52"><defs><style>.a{fill:#fff;}</style></defs><title>pnp-sp-usage-docs-white</title><path class="a" d="M32.1,56.45q0,3.91-3,3.92c-2.1,0-3.15-1.36-3.15-4.06v-8H23.62v8.43c0,3.72,1.76,5.59,5.27,5.59s5.5-1.94,5.5-5.81V48.35H32.1Z"/><path class="a" d="M44.77,56.07a6.43,6.43,0,0,0-1.13-.91c-.43-.28-.88-.54-1.36-.79L41,53.8a6.1,6.1,0,0,1-.9-.55,2,2,0,0,1-.56-.61,1.58,1.58,0,0,1-.19-.8,1.37,1.37,0,0,1,.25-.84,1.78,1.78,0,0,1,.65-.56,2.74,2.74,0,0,1,.9-.32,4.94,4.94,0,0,1,1-.1,5,5,0,0,1,3,.85V48.61a7.47,7.47,0,0,0-3.15-.49,7.31,7.31,0,0,0-1.87.23,5.31,5.31,0,0,0-1.63.69,3.7,3.7,0,0,0-1.15,1.18A3.2,3.2,0,0,0,37,51.91a3.42,3.42,0,0,0,.26,1.37,3.51,3.51,0,0,0,.7,1,5.61,5.61,0,0,0,1.05.86c.41.25.84.5,1.31.75l1.23.58a6.47,6.47,0,0,1,1,.57,2.58,2.58,0,0,1,.66.66,1.48,1.48,0,0,1,.23.85,1.57,1.57,0,0,1-.7,1.39,3.87,3.87,0,0,1-2.15.48,5.88,5.88,0,0,1-.9-.08,6.71,6.71,0,0,1-1-.25,4.8,4.8,0,0,1-.93-.39,3.63,3.63,0,0,1-.76-.52v2.36a3,3,0,0,0,.76.32,10.23,10.23,0,0,0,2,.4,7.31,7.31,0,0,0,.85.06,9,9,0,0,0,2-.21,5,5,0,0,0,1.65-.65,3.54,3.54,0,0,0,1.14-1.17,3.46,3.46,0,0,0,.42-1.77,3.26,3.26,0,0,0-.29-1.39A3.78,3.78,0,0,0,44.77,56.07Z"/><path class="a" d="M52,48.35,46.81,62.14h2.5l1.19-3.51h5.42l1.24,3.51h2.51L54.55,48.35Zm-.87,8.41L53,51.26a6.05,6.05,0,0,0,.19-.86h0a7.51,7.51,0,0,0,.18.86l1.92,5.5Z"/><path class="a" d="M60.46,55.43a6.84,6.84,0,0,0,1.9,5,6.67,6.67,0,0,0,5,1.91,9.81,9.81,0,0,0,4.8-1.18V54.65H66.92v1.92h2.91v3.28a5.25,5.25,0,0,1-2.46.55A4.2,4.2,0,0,1,64.08,59a5.43,5.43,0,0,1-1.21-3.74,5.17,5.17,0,0,1,1.41-3.76,4.78,4.78,0,0,1,3.61-1.45,6.57,6.57,0,0,1,3.77,1.06V48.79a9.75,9.75,0,0,0-3.86-.67,7.14,7.14,0,0,0-5.26,2.05A7.06,7.06,0,0,0,60.46,55.43Z"/><polygon class="a" points="82.82 60.2 77.36 60.2 77.36 56.13 82.11 56.13 82.11 54.2 77.36 54.2 77.36 50.29 82.51 50.29 82.51 48.35 75.08 48.35 75.08 62.14 82.82 62.14 82.82 60.2"/><path class="a" d="M100.17,60.2a6.62,6.62,0,0,0,2.11-5.13q0-6.72-7.62-6.72h-4V62.14H94.5A8.08,8.08,0,0,0,100.17,60.2ZM93,50.29h1.91q5,0,5,4.84a4.63,4.63,0,0,1-5.09,5.07H93Z"/><path class="a" d="M110.48,62.37a6.33,6.33,0,0,0,4.86-2,7.57,7.57,0,0,0,1.82-5.34,7.14,7.14,0,0,0-1.78-5,6.06,6.06,0,0,0-4.67-1.92,6.44,6.44,0,0,0-5,2,7.56,7.56,0,0,0-1.82,5.31,7.09,7.09,0,0,0,1.79,5A6.21,6.21,0,0,0,110.48,62.37Zm-3-10.83a3.84,3.84,0,0,1,3.08-1.41,3.77,3.77,0,0,1,3.06,1.34,5.86,5.86,0,0,1,1.11,3.82A5.59,5.59,0,0,1,113.62,59a3.91,3.91,0,0,1-3.13,1.34,3.69,3.69,0,0,1-3-1.41,6.44,6.44,0,0,1,0-7.42Z"/><path class="a" d="M125.42,62.37a8.35,8.35,0,0,0,3.88-.81V59.44a6.09,6.09,0,0,1-3.39.93A4.52,4.52,0,0,1,122.5,59a5,5,0,0,1-1.3-3.63,5.3,5.3,0,0,1,1.39-3.83,4.86,4.86,0,0,1,3.63-1.43,5.86,5.86,0,0,1,3.08.83V48.69a8.38,8.38,0,0,0-3.32-.57,7,7,0,0,0-5.14,2,7.25,7.25,0,0,0-2,5.34,6.88,6.88,0,0,0,1.81,5A6.29,6.29,0,0,0,125.42,62.37Z"/><path class="a" d="M132.23,54.33a5.31,5.31,0,0,0,1.05.86c.4.25.84.5,1.31.75l1.22.58a6.6,6.6,0,0,1,1,.57,2.58,2.58,0,0,1,.66.66A1.71,1.71,0,0,1,137,60a3.83,3.83,0,0,1-2.14.48,6.12,6.12,0,0,1-.91-.08,7.42,7.42,0,0,1-1-.25,5.08,5.08,0,0,1-.93-.39,3.55,3.55,0,0,1-.75-.52v2.36a2.89,2.89,0,0,0,.76.32,9.13,9.13,0,0,0,1,.25,9.84,9.84,0,0,0,1,.15,7.46,7.46,0,0,0,.85.06,9,9,0,0,0,2-.21,5,5,0,0,0,1.65-.65,3.36,3.36,0,0,0,1.14-1.17,3.46,3.46,0,0,0,.42-1.77,3.26,3.26,0,0,0-.28-1.39,3.82,3.82,0,0,0-.77-1.11,6.35,6.35,0,0,0-1.12-.91c-.43-.28-.88-.54-1.36-.79l-1.24-.57a5.62,5.62,0,0,1-.9-.55,1.88,1.88,0,0,1-.56-.61,1.58,1.58,0,0,1-.2-.8,1.44,1.44,0,0,1,.25-.84,2,2,0,0,1,.65-.56,2.89,2.89,0,0,1,.91-.32,4.87,4.87,0,0,1,1-.1,5,5,0,0,1,3,.85V48.61a7.47,7.47,0,0,0-3.15-.49,7.31,7.31,0,0,0-1.87.23,5.31,5.31,0,0,0-1.63.69,3.6,3.6,0,0,0-1.15,1.18,3.2,3.2,0,0,0-.44,1.69,3.42,3.42,0,0,0,.25,1.37A3.54,3.54,0,0,0,132.23,54.33Z"/><path class="a" d="M102.61,22.34c.72.3,1.39.58,2,.86a13.1,13.1,0,0,1,1.61.88,4.63,4.63,0,0,1,1.06,1,2,2,0,0,1,.39,1.22,1.91,1.91,0,0,1-.24.94,2.3,2.3,0,0,1-.74.75,4.17,4.17,0,0,1-1.24.49,7.36,7.36,0,0,1-1.73.18,10,10,0,0,1-3.35-.59,10.13,10.13,0,0,1-3.07-1.78v5.2a10.79,10.79,0,0,0,3,1,19.43,19.43,0,0,0,3.65.33,17,17,0,0,0,3.55-.36,8.73,8.73,0,0,0,3-1.18,6,6,0,0,0,2-2.14,6.71,6.71,0,0,0,.74-3.28,6.54,6.54,0,0,0-.43-2.48,5.71,5.71,0,0,0-1.21-1.89A9.36,9.36,0,0,0,109.65,20a20.41,20.41,0,0,0-2.52-1.24c-.68-.28-1.29-.56-1.83-.82a9.12,9.12,0,0,1-1.39-.82,3.58,3.58,0,0,1-.87-.87,1.82,1.82,0,0,1-.31-1.05,1.79,1.79,0,0,1,.27-1,2.52,2.52,0,0,1,.78-.74A4.28,4.28,0,0,1,105,13a7.42,7.42,0,0,1,1.63-.17,9.51,9.51,0,0,1,1.37.1,9.34,9.34,0,0,1,1.45.3,10.12,10.12,0,0,1,1.43.51,8.21,8.21,0,0,1,1.27.72V9.57a12.42,12.42,0,0,0-2.59-.68,20.66,20.66,0,0,0-3.23-.22,14.81,14.81,0,0,0-3.51.4,9.16,9.16,0,0,0-2.92,1.24A6,6,0,0,0,97.2,15.6a6.06,6.06,0,0,0,1.34,4A10.2,10.2,0,0,0,102.61,22.34Z"/><path class="a" d="M122.28,24.34h2.51a10,10,0,0,0,6.75-2.17,7.1,7.1,0,0,0,2.53-5.68q0-7.42-8.81-7.43H117V32.37h5.25Zm0-11.25h2.07c2.8,0,4.19,1.2,4.19,3.6s-1.39,3.67-4.19,3.67h-2.07Z"/><path class="a" d="M57.68,17.43q0-3.4-4-3.4h-2v6.88h2Q57.68,20.91,57.68,17.43Z"/><path class="a" d="M19.06,17.43q0-3.4-4-3.4h-2v6.88h2Q19.06,20.91,19.06,17.43Z"/><path class="a" d="M69.83.13h0L0,0V70.52H163V.13ZM46.73,10.21h7.83q8.38,0,8.38,7a6.75,6.75,0,0,1-2.4,5.38,9.58,9.58,0,0,1-6.43,2.06H51.73V32.3h-5ZM27.09,16.52H32V19H32a5.6,5.6,0,0,1,5.09-2.88c3.5,0,5.26,2.16,5.26,6.5V32.3H37.51V23.53c0-2.44-.87-3.66-2.63-3.66a2.59,2.59,0,0,0-2.08,1A3.64,3.64,0,0,0,32,23.3v9H27.09Zm-19-6.31h7.83q8.39,0,8.38,7a6.73,6.73,0,0,1-2.41,5.38,9.54,9.54,0,0,1-6.42,2.06H13.11V32.3h-5Zm152.62,58H2.27V42.51l65.25.11h93.21Zm0-28H69.83V2.4h90.9Z"/></svg>