<svg xmlns="http://www.w3.org/2000/svg" viewBox="0 0 233.53 233.53"><title>pnp-csom-black</title><path d="M58.42,205.57q-5.16,2.61-13.46,2.6-10.85,0-17-6.63t-6.2-17.67q0-11.76,7-19.07t18.1-7.32a32.64,32.64,0,0,1,11.63,1.82v10.62A20.09,20.09,0,0,0,47.65,167,14,14,0,0,0,37,171.33q-4.08,4.33-4.07,11.75,0,7.11,3.84,11.34a13.29,13.29,0,0,0,10.34,4.22,21.39,21.39,0,0,0,11.36-3.15Z"/><path d="M65.8,205.44V194.5a20,20,0,0,0,6.2,3.74,19.11,19.11,0,0,0,6.77,1.25,13.91,13.91,0,0,0,3.49-.38,7.88,7.88,0,0,0,2.5-1,4.53,4.53,0,0,0,1.49-1.57,4,4,0,0,0,.49-2A4.34,4.34,0,0,0,86,192a8.39,8.39,0,0,0-2.15-2.08A21.22,21.22,0,0,0,80.57,188c-1.25-.59-2.59-1.2-4-1.81a20.65,20.65,0,0,1-8.22-5.85A13.13,13.13,0,0,1,65.6,172a13.81,13.81,0,0,1,1.48-6.58,12.85,12.85,0,0,1,4-4.52A17.65,17.65,0,0,1,77,158.32a29.12,29.12,0,0,1,7.09-.84,42,42,0,0,1,6.52.46,25.59,25.59,0,0,1,5.24,1.42v10.22a15.54,15.54,0,0,0-2.58-1.5A21.12,21.12,0,0,0,90.39,167a22.73,22.73,0,0,0-2.94-.63,19.56,19.56,0,0,0-2.78-.2,13.93,13.93,0,0,0-3.28.35,8.36,8.36,0,0,0-2.49,1,4.91,4.91,0,0,0-1.58,1.56,3.8,3.8,0,0,0-.56,2,4,4,0,0,0,.63,2.21,7.09,7.09,0,0,0,1.77,1.84A19.34,19.34,0,0,0,82,176.88c1.09.56,2.33,1.13,3.71,1.73a41.23,41.23,0,0,1,5.07,2.61,18.08,18.08,0,0,1,3.86,3.13,12.3,12.3,0,0,1,2.46,4,16.55,16.55,0,0,1-.64,12.1,12.49,12.49,0,0,1-4,4.51,17.26,17.26,0,0,1-6,2.48,33.26,33.26,0,0,1-7.17.75,38.76,38.76,0,0,1-7.37-.68A21.89,21.89,0,0,1,65.8,205.44Z"/><path d="M125.54,208.17q-10.11,0-16.48-6.85t-6.36-17.86q0-11.62,6.46-18.8t17.14-7.18q10.08,0,16.3,6.87t6.22,18.12q0,11.55-6.45,18.63T125.54,208.17ZM126,167a10.52,10.52,0,0,0-8.86,4.35q-3.28,4.36-3.28,11.54t3.28,11.52a10.38,10.38,0,0,0,8.6,4.24,10.49,10.49,0,0,0,8.7-4.12q3.21-4.12,3.22-11.44,0-7.62-3.12-11.86A10,10,0,0,0,126,167Z"/><path d="M208.92,207.32H198.45V178c0-3.17.13-6.66.39-10.49h-.26A53.11,53.11,0,0,1,197.1,174l-11,33.33h-8.66l-11.23-33a67.49,67.49,0,0,1-1.48-6.83h-.29q.42,7.25.43,12.71v27.11h-9.56v-49h15.53l9.62,29.06a42.86,42.86,0,0,1,1.67,7h.2a71.24,71.24,0,0,1,1.87-7.07l9.62-29h15.13Z"/><path d="M64.16,55.3q0-11.41-13.49-11.41H44V67h6.65Q64.17,67,64.16,55.3Z"/><path d="M233.53,0H0V140.81H0v92.72H233.53V0ZM157.75,31.09h26.47q28.35,0,28.35,23.59a22.52,22.52,0,0,1-8.13,18q-8.15,6.89-21.74,6.88h-8.06v25.5H157.75ZM91.31,52.25h16.53v8.36h.21A19,19,0,0,1,125.26,51q17.79,0,17.79,21.78V105.1H126.57V75.73q0-12.27-8.89-12.28a8.88,8.88,0,0,0-7.06,3.25A12.28,12.28,0,0,0,107.84,75V105.1H91.31ZM27.13,31.09H53.6Q82,31.09,82,54.68a22.52,22.52,0,0,1-8.13,18q-8.14,6.89-21.74,6.88H44v25.5H27.13Zm199.4,195.44H7V140.81H226.53Z"/><path d="M194.78,55.3q0-11.41-13.49-11.41h-6.65V67h6.65Q194.79,67,194.78,55.3Z"/></svg>