<svg xmlns="http://www.w3.org/2000/svg" viewBox="0 0 163.51 71.04"><defs><style>.cls-1{fill:#03787c;}</style></defs><title>pnp-core-library-teal</title><g id="Layer_2" data-name="Layer 2"><g id="Teal"><g id="PnP_Core_Libraries" data-name="PnP Core Libraries"><path class="cls-1" d="M48.3,62.4h-8V49.64h2.86v10.6H48.3Z"/><path class="cls-1" d="M55,62.4H52.18V49.64H55Z"/><path class="cls-1" d="M69.72,58.66a3.26,3.26,0,0,1-.35,1.54,3.43,3.43,0,0,1-1,1.18,4.72,4.72,0,0,1-1.54.76,7.24,7.24,0,0,1-2,.26H60V49.64h4.7a5.78,5.78,0,0,1,3.31.78,2.51,2.51,0,0,1,1.13,2.17,2.72,2.72,0,0,1-.67,1.84,3.79,3.79,0,0,1-1.93,1.12v0a4.5,4.5,0,0,1,1.39.35,3.18,3.18,0,0,1,1,.67,2.66,2.66,0,0,1,.62.93A3,3,0,0,1,69.72,58.66ZM66.11,53a1.15,1.15,0,0,0-.53-1.11,3.56,3.56,0,0,0-1.64-.29H62.82v3.22h1.09a2.49,2.49,0,0,0,1.63-.46A1.62,1.62,0,0,0,66.11,53Zm.64,5.63a1.57,1.57,0,0,0-.64-1.39,3.44,3.44,0,0,0-1.93-.44H62.82v3.62h1.53A3.16,3.16,0,0,0,66.13,60,1.52,1.52,0,0,0,66.75,58.64Z"/><path class="cls-1" d="M84.3,62.4H81L79,59a5.65,5.65,0,0,0-.47-.74,2.27,2.27,0,0,0-.45-.47,1.23,1.23,0,0,0-.48-.25,1.85,1.85,0,0,0-.54-.08h-.65v5H73.53V49.64h4.69a6,6,0,0,1,3.55.88A2.93,2.93,0,0,1,83,53.07a3.29,3.29,0,0,1-.86,2.25,3.67,3.67,0,0,1-1,.76,5.26,5.26,0,0,1-1.24.49v0a2.68,2.68,0,0,1,1,.64,6.06,6.06,0,0,1,.9,1.15ZM80,53.32A1.44,1.44,0,0,0,79.44,52a3.19,3.19,0,0,0-1.73-.38H76.39v3.79h1a4.12,4.12,0,0,0,1.09-.13,2.51,2.51,0,0,0,.84-.39,1.76,1.76,0,0,0,.55-.66A2,2,0,0,0,80,53.32Z"/><path class="cls-1" d="M98.53,62.4H95.44l-1.06-3H89.57l-1,3H85.46l5-12.76h3.21Zm-4.81-5-1.41-4.05c-.07-.21-.14-.43-.2-.67A3.62,3.62,0,0,1,92,52h-.06c0,.19-.07.39-.12.63s-.13.47-.21.71l-1.34,4Z"/><path class="cls-1" d="M112.28,62.4h-3.34L107,59a6.85,6.85,0,0,0-.48-.74,2.27,2.27,0,0,0-.45-.47,1.27,1.27,0,0,0-.47-.25,1.92,1.92,0,0,0-.55-.08h-.64v5h-2.86V49.64h4.69a6.06,6.06,0,0,1,3.55.88A2.93,2.93,0,0,1,111,53.07a3.33,3.33,0,0,1-.22,1.24,3.74,3.74,0,0,1-.63,1,3.84,3.84,0,0,1-1,.76,5.43,5.43,0,0,1-1.24.49v0a2.86,2.86,0,0,1,1,.64,6.48,6.48,0,0,1,.89,1.15ZM108,53.32a1.42,1.42,0,0,0-.58-1.31,3.18,3.18,0,0,0-1.72-.38h-1.32v3.79h1a4.18,4.18,0,0,0,1.09-.13,2.71,2.71,0,0,0,.84-.39,1.83,1.83,0,0,0,.54-.66A2,2,0,0,0,108,53.32Z"/><path class="cls-1" d="M125,49.64l-4.4,8.14V62.4h-2.86V57.82l-4.3-8.18h3.16l2.28,4.84a3.66,3.66,0,0,1,.14.34c0,.15.11.35.19.58h0c0-.16.09-.32.14-.46a3.36,3.36,0,0,1,.2-.43L122,49.64Z"/><path class="cls-1" d="M161.23,42.94V68.76H2.28V42.94h159m2.28-2.28H0V71H163.51V40.66Z"/><path class="cls-1" d="M53.86,14.07h-2V21h2c2.67,0,4-1.17,4-3.49S56.53,14.07,53.86,14.07Z"/><path class="cls-1" d="M15.12,14.07h-2V21h2c2.67,0,4-1.17,4-3.49S17.79,14.07,15.12,14.07Z"/><path class="cls-1" d="M0,0V42.64l70,.11V.12ZM22,22.7a9.54,9.54,0,0,1-6.44,2.06H13.15V32.4h-5V10.24H16q8.4,0,8.41,7.06A6.75,6.75,0,0,1,22,22.7Zm20.54,9.7H37.63V23.6q0-3.68-2.64-3.67a2.62,2.62,0,0,0-2.09,1,3.68,3.68,0,0,0-.82,2.47v9H27.17V16.57h4.91v2.51h.06a5.62,5.62,0,0,1,5.1-2.89q5.28,0,5.28,6.52Zm18.21-9.7a9.57,9.57,0,0,1-6.45,2.06H51.89V32.4h-5V10.24h7.85q8.42,0,8.41,7.06A6.77,6.77,0,0,1,60.73,22.7Z"/><path class="cls-1" d="M161.23,2.4V40.48H70V2.4h91.22M163.51.13H67.73V42.76h95.78V.13Z"/><path class="cls-1" d="M97.18,31.64a15.4,15.4,0,0,1-6.69,1.24q-5.38,0-8.46-3.16a11.55,11.55,0,0,1-3.09-8.43,12.37,12.37,0,0,1,3.47-9.1,12.11,12.11,0,0,1,9-3.49,17,17,0,0,1,5.78.86v5.07a10.29,10.29,0,0,0-5.35-1.4,7.1,7.1,0,0,0-5.32,2.07,7.67,7.67,0,0,0-2,5.61,7.56,7.56,0,0,0,1.91,5.41,6.73,6.73,0,0,0,5.13,2,11,11,0,0,0,5.65-1.5Z"/><path class="cls-1" d="M108.59,32.78a10.65,10.65,0,0,1-3.79-.64,8.45,8.45,0,0,1-2.92-1.82A8,8,0,0,1,100,27.53,9.28,9.28,0,0,1,99.33,24a10.06,10.06,0,0,1,.68-3.79,8.29,8.29,0,0,1,1.92-2.93,8.58,8.58,0,0,1,3-1.9,11,11,0,0,1,4-.68,10.59,10.59,0,0,1,3.74.64,8.42,8.42,0,0,1,2.87,1.82,8.25,8.25,0,0,1,1.86,2.82,9.77,9.77,0,0,1,.66,3.66,10.05,10.05,0,0,1-.67,3.75,8.17,8.17,0,0,1-1.92,2.9,8.85,8.85,0,0,1-3,1.88A10.92,10.92,0,0,1,108.59,32.78Zm.2-14.41a3.82,3.82,0,0,0-1.72.38,3.56,3.56,0,0,0-1.26,1.09,5.32,5.32,0,0,0-.78,1.7,9.1,9.1,0,0,0,0,4.4,5,5,0,0,0,.78,1.68A3.36,3.36,0,0,0,107,28.68a3.46,3.46,0,0,0,1.63.37,3.77,3.77,0,0,0,1.68-.36,3.44,3.44,0,0,0,1.24-1,4.79,4.79,0,0,0,.76-1.66,8.62,8.62,0,0,0,.25-2.19,7,7,0,0,0-1-4A3.2,3.2,0,0,0,108.79,18.37Z"/><path class="cls-1" d="M138,32.47h-6l-2.33-4.12c-.26-.46-.5-.84-.7-1.16a4.57,4.57,0,0,0-.61-.75,2,2,0,0,0-.58-.4,1.76,1.76,0,0,0-.66-.12h-.18v6.55h-5.18V15h6.93c4.71,0,7.06,1.58,7.06,4.76a4.42,4.42,0,0,1-.3,1.66,4.5,4.5,0,0,1-.84,1.35,5.59,5.59,0,0,1-1.29,1.05,7.65,7.65,0,0,1-1.65.7v.05a4.18,4.18,0,0,1,1.71,1,9.72,9.72,0,0,1,1.44,1.83ZM126.9,18.22v4.39h.87A2.57,2.57,0,0,0,129.6,22a2.33,2.33,0,0,0,.69-1.76,1.73,1.73,0,0,0-.61-1.56,3.26,3.26,0,0,0-1.85-.42Z"/><path class="cls-1" d="M152.19,32.47H140.55V15h11.2v3.53h-6v3.41h5.53v3.54h-5.53V29h6.45Z"/></g></g></g></svg>