<?xml version="1.0" encoding="UTF-8"?><svg id="b" xmlns="http://www.w3.org/2000/svg" viewBox="0 0 163 70.57"><defs><style>.d{fill:#03787c;}</style></defs><g id="c"><g><g><g><path class="d" d="M25.82,51.01h-4.93v3.48h4.51v2.16h-4.51v5.31h-2.94v-13.12h7.87v2.17Z"/><path class="d" d="M39.89,61.95h-3.44l-2.03-3.54c-.17-.3-.33-.55-.49-.76-.15-.2-.31-.37-.46-.49-.15-.12-.32-.21-.49-.26-.17-.05-.36-.07-.56-.07h-.66v5.11h-2.94v-13.12h4.82c1.59,0,2.8,.3,3.65,.9,.85,.6,1.27,1.48,1.27,2.62,0,.46-.08,.89-.23,1.28-.15,.39-.37,.73-.65,1.04-.28,.3-.61,.57-.99,.78-.39,.21-.81,.38-1.28,.51v.04c.37,.14,.7,.36,1.01,.66,.31,.3,.61,.7,.92,1.18l2.55,4.11Zm-4.4-9.33c0-.64-.2-1.09-.59-1.35s-.99-.38-1.78-.38h-1.35v3.89h.98c.41,0,.78-.04,1.12-.13,.34-.09,.63-.22,.87-.4,.24-.18,.43-.4,.56-.67s.2-.59,.2-.95Z"/><path class="d" d="M53.52,61.95h-3.17l-1.1-3.05h-4.94l-1.05,3.05h-3.17l5.09-13.12h3.29l5.05,13.12Zm-4.94-5.16l-1.45-4.16c-.07-.21-.14-.44-.21-.69-.07-.25-.11-.47-.12-.67h-.06c-.02,.19-.07,.4-.13,.64-.06,.24-.13,.49-.21,.74l-1.38,4.14h3.56Z"/><path class="d" d="M71.2,61.95h-2.88v-7.76c0-.39,0-.8,.02-1.23,.01-.43,.04-.9,.09-1.41h-.07c-.08,.35-.16,.67-.24,.95-.08,.29-.17,.55-.27,.79l-3.44,8.65h-2.17l-3.5-8.68c-.1-.21-.19-.45-.27-.71-.08-.26-.17-.6-.26-1.01h-.06c.02,.23,.03,.44,.04,.64s.02,.4,.03,.6c0,.2,.01,.42,.02,.63,0,.22,0,.46,0,.73v7.79h-2.65v-13.12h4.06l3.07,7.59c.14,.33,.26,.66,.36,.99s.18,.61,.23,.87h.07c.09-.3,.19-.62,.31-.96s.23-.65,.34-.92l3.05-7.57h4.11v13.12Z"/><path class="d" d="M83.45,61.95h-8.2v-13.12h7.87v2.17h-4.93v3.23h4.54v2.17h-4.54v3.38h5.26v2.16Z"/><path class="d" d="M96.2,48.84l2.53,8.09c.14,.45,.24,.84,.32,1.19,.07,.35,.13,.65,.17,.9h.04c.02-.24,.08-.54,.15-.9s.19-.81,.35-1.34l2.07-7.93h3.09c-.68,2.2-1.34,4.38-2.01,6.56s-1.33,4.36-2,6.56h-3.15l-2.54-7.91c-.09-.28-.18-.61-.27-.99-.09-.39-.16-.76-.2-1.13-.08,.4-.17,.8-.26,1.2s-.18,.73-.27,.99c-.41,1.31-.83,2.62-1.25,3.92-.42,1.3-.84,2.61-1.25,3.92h-3.25l-3.88-13.12h3.11l2.04,7.98c.14,.48,.24,.9,.32,1.26s.13,.68,.16,.95h.05c.02-.21,.08-.5,.15-.85,.08-.36,.19-.79,.35-1.29l2.61-8.04h2.82Z"/><path class="d" d="M112.83,62.19c-1.01,0-1.93-.16-2.76-.48-.83-.32-1.54-.78-2.13-1.36-.59-.59-1.05-1.29-1.37-2.1-.33-.81-.49-1.71-.49-2.68s.16-1.95,.48-2.8c.32-.85,.78-1.58,1.39-2.2,.6-.61,1.33-1.09,2.2-1.43,.86-.34,1.84-.51,2.93-.51,1.01,0,1.92,.17,2.73,.5,.81,.33,1.51,.8,2.09,1.39,.58,.59,1.02,1.3,1.34,2.1,.31,.81,.47,1.69,.47,2.65,0,1.06-.17,2.01-.5,2.87-.33,.85-.8,1.58-1.41,2.18-.61,.6-1.33,1.06-2.17,1.39-.84,.33-1.77,.49-2.79,.49Zm.13-11.33c-.59,0-1.13,.11-1.6,.33-.47,.22-.87,.53-1.2,.93-.33,.4-.58,.88-.75,1.44-.18,.56-.26,1.18-.26,1.87s.08,1.32,.25,1.87c.17,.56,.41,1.03,.73,1.43,.32,.39,.71,.7,1.17,.92s.98,.32,1.56,.32c.61,0,1.15-.1,1.62-.3,.47-.2,.87-.5,1.18-.88,.32-.39,.56-.86,.72-1.42,.16-.56,.24-1.19,.24-1.9s-.08-1.37-.23-1.94c-.15-.57-.38-1.05-.69-1.45s-.69-.7-1.15-.9c-.46-.21-.99-.31-1.59-.31Z"/><path class="d" d="M133.76,61.95h-3.44l-2.03-3.54c-.17-.3-.33-.55-.49-.76-.15-.2-.31-.37-.46-.49-.15-.12-.32-.21-.49-.26-.17-.05-.36-.07-.56-.07h-.66v5.11h-2.94v-13.12h4.82c1.59,0,2.8,.3,3.65,.9,.85,.6,1.27,1.48,1.27,2.62,0,.46-.08,.89-.23,1.28-.15,.39-.37,.73-.65,1.04-.28,.3-.61,.57-.99,.78-.39,.21-.81,.38-1.28,.51v.04c.37,.14,.7,.36,1.01,.66,.31,.3,.61,.7,.92,1.18l2.55,4.11Zm-4.4-9.33c0-.64-.2-1.09-.59-1.35s-.99-.38-1.78-.38h-1.35v3.89h.98c.41,0,.78-.04,1.12-.13,.34-.09,.63-.22,.87-.4,.24-.18,.43-.4,.56-.67s.2-.59,.2-.95Z"/><path class="d" d="M147.07,61.95h-3.49l-4.21-5.71c-.06-.07-.13-.18-.22-.32-.09-.14-.17-.28-.23-.42h-.05v6.44h-2.94v-13.12h2.94v6.19h.05c.04-.08,.11-.19,.19-.33,.09-.14,.18-.27,.27-.39l4-5.47h3.26l-4.8,6.28,5.22,6.83Z"/></g><g><path class="d" d="M87.49,32.62c-.87,0-1.6-.27-2.19-.81-.58-.54-.87-1.2-.87-1.98s.3-1.47,.9-1.98,1.35-.77,2.24-.77,1.65,.26,2.23,.78c.58,.52,.87,1.18,.87,1.97s-.29,1.49-.88,2.01-1.35,.78-2.29,.78Z"/><path class="d" d="M111.08,32.2h-5.3v-9.57c0-2.67-.95-4-2.86-4-.92,0-1.68,.35-2.27,1.06s-.89,1.6-.89,2.69v9.82h-5.31V14.98h5.31v2.72h.07c1.27-2.1,3.11-3.14,5.53-3.14,3.81,0,5.72,2.37,5.72,7.09v10.54Z"/><path class="d" d="M130.75,25.1h-11.23c.18,2.5,1.75,3.75,4.72,3.75,1.89,0,3.56-.45,4.99-1.34v3.83c-1.59,.85-3.66,1.28-6.2,1.28-2.78,0-4.94-.77-6.47-2.31-1.54-1.54-2.3-3.69-2.3-6.45s.83-5.12,2.49-6.79,3.7-2.5,6.12-2.5,4.45,.75,5.83,2.24c1.37,1.49,2.06,3.51,2.06,6.07v2.24Zm-4.93-3.26c0-2.47-1-3.7-2.99-3.7-.85,0-1.59,.35-2.21,1.06-.62,.71-1,1.59-1.13,2.64h6.34Z"/><path class="d" d="M144.32,31.99c-.78,.42-1.97,.62-3.55,.62-3.74,0-5.62-1.94-5.62-5.83v-7.88h-2.79v-3.92h2.79v-3.72l5.3-1.51v5.23h3.87v3.92h-3.87v6.96c0,1.79,.71,2.69,2.14,2.69,.56,0,1.14-.16,1.73-.49v3.93Z"/></g></g><g><path class="d" d="M57.72,17.43c0-2.27-1.33-3.4-3.99-3.4h-1.96v6.88h1.96c2.66,0,3.99-1.16,3.99-3.48Z"/><path class="d" d="M19.1,17.43c0-2.27-1.33-3.4-3.99-3.4h-1.96v6.88h1.96c2.66,0,3.99-1.16,3.99-3.48Z"/><path class="d" d="M163,.13H69.86S.04,0,.04,0V40.28h-.04v30.29H163v-27.94h0V.13Zm-2.27,2.27V40.28H69.86V2.4h90.87ZM46.77,10.21h7.83c5.59,0,8.38,2.35,8.38,7.04,0,2.22-.8,4.01-2.41,5.38-1.6,1.37-3.75,2.06-6.43,2.06h-2.38v7.61h-5V10.21Zm-19.64,6.31h4.89v2.5h.06c1.16-1.92,2.86-2.88,5.09-2.88,3.51,0,5.26,2.17,5.26,6.5v9.66h-4.87v-8.76c0-2.44-.88-3.67-2.63-3.67-.85,0-1.54,.32-2.09,.97-.55,.65-.82,1.47-.82,2.46v8.99h-4.89v-15.77ZM8.15,10.21h7.83c5.59,0,8.38,2.35,8.38,7.04,0,2.22-.8,4.01-2.41,5.38-1.6,1.37-3.75,2.06-6.43,2.06h-2.38v7.61h-5V10.21Zm152.58,58.09H2.27v-25.75H30.11l37.42,.06h0s93.2,.01,93.2,.01v25.67Z"/></g></g></g></svg>