<svg xmlns="http://www.w3.org/2000/svg" viewBox="0 0 163.57 72.52"><defs><style>.cls-1,.cls-2{fill:#2e76bc;}.cls-2{font-size:24.31px;font-family:SegoeUI-Semibold, Segoe UI;font-weight:700;}.cls-3{letter-spacing:-0.03em;}.cls-4{letter-spacing:-0.02em;}.cls-5{letter-spacing:0em;}</style></defs><title>pnp-spfx-generator-blue</title><g id="Layer_2" data-name="Layer 2"><g id="Layer_1-2" data-name="Layer 1"><path class="cls-1" d="M79.37,32V26.81a10,10,0,0,0,6.38,2.35A7.33,7.33,0,0,0,87.47,29a3.93,3.93,0,0,0,1.22-.49,2.18,2.18,0,0,0,.74-.74,1.83,1.83,0,0,0,.24-.92,2,2,0,0,0-.39-1.21,4.16,4.16,0,0,0-1-1,11.59,11.59,0,0,0-1.59-.87c-.62-.28-1.28-.56-2-.85a10.19,10.19,0,0,1-4.05-2.75,6,6,0,0,1-1.33-3.93A6.14,6.14,0,0,1,80,13.15,6,6,0,0,1,82,11a8.77,8.77,0,0,1,2.89-1.23,14.64,14.64,0,0,1,3.49-.4,21.67,21.67,0,0,1,3.21.22,12.49,12.49,0,0,1,2.58.67v4.81a7.82,7.82,0,0,0-1.27-.71,10,10,0,0,0-1.42-.51,12.29,12.29,0,0,0-1.44-.3,11.1,11.1,0,0,0-1.37-.09,6.69,6.69,0,0,0-1.61.17,4.21,4.21,0,0,0-1.23.47,2.35,2.35,0,0,0-.77.73,1.71,1.71,0,0,0-.28,1,1.79,1.79,0,0,0,.31,1,3.58,3.58,0,0,0,.87.87,9.94,9.94,0,0,0,1.37.8q.81.39,1.83.81a21.41,21.41,0,0,1,2.49,1.23A9.3,9.3,0,0,1,93.53,22a5.67,5.67,0,0,1,1.21,1.88,6.58,6.58,0,0,1,.42,2.45,6.52,6.52,0,0,1-.73,3.24,6,6,0,0,1-2,2.12,8.74,8.74,0,0,1-2.93,1.17,17.39,17.39,0,0,1-3.53.35,19.12,19.12,0,0,1-3.62-.32A11.1,11.1,0,0,1,79.37,32Z"/><path class="cls-1" d="M104.19,24.9v7.94H99V9.78h8.18q8.75,0,8.75,7.35a7.06,7.06,0,0,1-2.51,5.62,10,10,0,0,1-6.71,2.15Zm0-11.13V21h2c2.78,0,4.17-1.22,4.17-3.64s-1.39-3.55-4.17-3.55Z"/><path class="cls-1" d="M132.68,14h-8.17v5.66H132v4.21h-7.51v9h-5.22V9.78h13.39Z"/><path class="cls-1" d="M152,16.37l-5.46,8,5.43,8.49h-5.88l-2.39-4.44c-.19-.35-.42-.85-.69-1.49h-.07a9.94,9.94,0,0,1-.66,1.44l-2.41,4.49H134l5.59-8.2-5.25-8.27h5.91L142.58,21a10.22,10.22,0,0,1,.66,1.54h.07A10.46,10.46,0,0,1,144,21l2.41-4.59Z"/><path class="cls-1" d="M53.9,14.07h-2V21h2c2.67,0,4-1.17,4-3.49S56.57,14.07,53.9,14.07Z"/><path class="cls-1" d="M15.16,14.07h-2V21h2c2.66,0,4-1.17,4-3.49S17.82,14.07,15.16,14.07Z"/><path class="cls-1" d="M0,0V42.64l70,.11V.12ZM22,22.7a9.57,9.57,0,0,1-6.45,2.06H13.19V32.4h-5V10.24H16q8.41,0,8.41,7.06A6.74,6.74,0,0,1,22,22.7Zm20.54,9.7H37.67V23.6q0-3.68-2.64-3.67a2.59,2.59,0,0,0-2.09,1,3.69,3.69,0,0,0-.83,2.47v9h-4.9V16.57h4.9v2.51h.07a5.6,5.6,0,0,1,5.1-2.89q5.28,0,5.28,6.52Zm18.2-9.7a9.52,9.52,0,0,1-6.44,2.06H51.93V32.4h-5V10.24h7.85q8.4,0,8.41,7.06A6.75,6.75,0,0,1,60.76,22.7Z"/><path class="cls-1" d="M161.29,2.4V40.48H70.08V2.4h91.21M163.57.13H67.8V42.76h95.77V.13Z"/><text class="cls-2" transform="translate(23.56 62.15)">GENER<tspan class="cls-3" x="65.05" y="0">A</tspan><tspan class="cls-4" x="77.46" y="0">T</tspan><tspan class="cls-5" x="88.39" y="0">OR</tspan></text><path class="cls-1" d="M161.23,42.69V68.51H2.28V42.69h159m2.28-2.28H0V70.79H163.51V40.41Z"/></g></g></svg>