<svg xmlns="http://www.w3.org/2000/svg" viewBox="0 0 233.53 233.53"><defs><style>.a{fill:#1d1d1b;}</style></defs><title>pnp-ps-black</title><path class="a" d="M64.16,55.3q0-11.41-13.49-11.41H44V67h6.65Q64.17,67,64.16,55.3Z"/><path class="a" d="M233.53,0H0V140.81H0v92.72H233.53V0ZM157.75,31.09h26.47q28.35,0,28.35,23.59a22.52,22.52,0,0,1-8.13,18q-8.15,6.89-21.74,6.88h-8.06v25.5H157.75ZM91.31,52.25h16.53v8.36h.21A19,19,0,0,1,125.26,51q17.79,0,17.79,21.78V105.1H126.57V75.73q0-12.27-8.89-12.28a8.88,8.88,0,0,0-7.06,3.25A12.28,12.28,0,0,0,107.84,75V105.1H91.31ZM27.13,31.09H53.6Q82,31.09,82,54.68a22.52,22.52,0,0,1-8.13,18q-8.14,6.89-21.74,6.88H44v25.5H27.13Zm199.4,195.44H7V140.81H226.53Z"/><path class="a" d="M194.78,55.3q0-11.41-13.49-11.41h-6.65V67h6.65Q194.79,67,194.78,55.3Z"/><path class="a" d="M88,191.75v19.57H75.15V154.53h20q21.47,0,21.47,18.09a17.37,17.37,0,0,1-6.16,13.85q-6.16,5.28-16.46,5.28Zm0-27.4v17.7h5q10.22,0,10.21-9,0-8.74-10.21-8.75Z"/><path class="a" d="M122.36,209.14V196.47a24.45,24.45,0,0,0,7.48,4.33,24,24,0,0,0,8.16,1.45,18.11,18.11,0,0,0,4.22-.44,9.7,9.7,0,0,0,3-1.21,5.12,5.12,0,0,0,1.8-1.82,4.51,4.51,0,0,0,.6-2.27,5,5,0,0,0-.95-3,10.32,10.32,0,0,0-2.6-2.41,26.78,26.78,0,0,0-3.9-2.14c-1.5-.69-3.13-1.39-4.87-2.1q-6.65-2.77-9.92-6.77a14.79,14.79,0,0,1-3.27-9.66,15.4,15.4,0,0,1,1.79-7.63,15,15,0,0,1,4.85-5.24,21.38,21.38,0,0,1,7.1-3,36.45,36.45,0,0,1,8.56-1,51,51,0,0,1,7.86.53,31.92,31.92,0,0,1,6.32,1.64V167.6a19.86,19.86,0,0,0-3.11-1.75A26.05,26.05,0,0,0,152,164.6a28.55,28.55,0,0,0-3.54-.73,24.83,24.83,0,0,0-3.35-.23,17.33,17.33,0,0,0-4,.41,10.28,10.28,0,0,0-3,1.17,5.78,5.78,0,0,0-1.9,1.8,4.27,4.27,0,0,0-.67,2.36,4.49,4.49,0,0,0,.75,2.55,8.5,8.5,0,0,0,2.14,2.14,23,23,0,0,0,3.36,2c1.32.65,2.82,1.31,4.48,2a49.86,49.86,0,0,1,6.12,3,21.82,21.82,0,0,1,4.65,3.62,14.13,14.13,0,0,1,3,4.62,18.43,18.43,0,0,1-.77,14,14.69,14.69,0,0,1-4.89,5.23,21.3,21.3,0,0,1-7.19,2.87,41.59,41.59,0,0,1-8.65.87,47.88,47.88,0,0,1-8.89-.8A26.83,26.83,0,0,1,122.36,209.14Z"/></svg>