<svg xmlns="http://www.w3.org/2000/svg" width="162.38" height="70.25" viewBox="0 0 162.38 70.25"><g id="Layer_2" data-name="Layer 2"><g id="Black-Logo"><path d="M24,50.52a6.94,6.94,0,0,0-2,5.14,6.53,6.53,0,0,0,1.74,4.76,6.36,6.36,0,0,0,4.78,1.78,8.71,8.71,0,0,0,3.78-.7V58.79a6.27,6.27,0,0,1-3.19.85,3.8,3.8,0,0,1-2.9-1.14,4.26,4.26,0,0,1-1.08-3,4.34,4.34,0,0,1,1.14-3.17,4,4,0,0,1,3-1.17,5.77,5.77,0,0,1,3,.79V49a9.4,9.4,0,0,0-3.26-.49A6.8,6.8,0,0,0,24,50.52Z" style="fill:#231f20"/><path d="M40.21,48.55a6.27,6.27,0,0,0-4.8,1.93,7.11,7.11,0,0,0-1.82,5.07,6.64,6.64,0,0,0,1.79,4.81A6.14,6.14,0,0,0,40,62.2a6.2,6.2,0,0,0,4.72-1.9,7,7,0,0,0,1.81-5,6.83,6.83,0,0,0-1.74-4.88A6,6,0,0,0,40.21,48.55Zm2.29,10a3,3,0,0,1-2.44,1.11,2.94,2.94,0,0,1-2.41-1.15,4.76,4.76,0,0,1-.93-3.1,4.86,4.86,0,0,1,.93-3.11,3,3,0,0,1,2.48-1.17,2.88,2.88,0,0,1,2.4,1.14,5.18,5.18,0,0,1,.87,3.2A4.77,4.77,0,0,1,42.5,58.53Z" style="fill:#231f20"/><path d="M57.79,56.07a13.75,13.75,0,0,0,.08,1.82h0q-.3-.54-.66-1.08l-5.24-8H48.72V62h2.81V54.72c0-1,0-1.67-.07-2.14h0c.13.25.35.61.67,1.1L57.6,62h3V48.77H57.79Z" style="fill:#231f20"/><polygon points="63.62 61.97 66.6 61.97 66.6 56.84 70.88 56.84 70.88 54.43 66.6 54.43 66.6 51.19 71.26 51.19 71.26 48.77 63.62 48.77 63.62 61.97" style="fill:#231f20"/><polygon points="81.35 59.56 76.4 59.56 76.4 56.54 80.72 56.54 80.72 54.13 76.4 54.13 76.4 51.19 81.05 51.19 81.05 48.77 73.43 48.77 73.43 61.97 81.35 61.97 81.35 59.56" style="fill:#231f20"/><path d="M86.44,56.92h.8a1.19,1.19,0,0,1,.51.11,1.57,1.57,0,0,1,.45.34,2.9,2.9,0,0,1,.43.52c.14.2.29.43.44.69L91.13,62h3.42l-2.5-3.9c-.13-.2-.27-.41-.43-.62s-.32-.41-.49-.6a4,4,0,0,0-.54-.48,1.74,1.74,0,0,0-.57-.3v0a4.34,4.34,0,0,0,1.22-.53,3.9,3.9,0,0,0,.94-.81,3.42,3.42,0,0,0,.6-1A3.78,3.78,0,0,0,93,52.36q0-3.59-4.81-3.59H83.47V62h3Zm0-5.92h1.35c1.38,0,2.07.57,2.07,1.73a1.87,1.87,0,0,1-.59,1.39,2.14,2.14,0,0,1-1.54.55H86.44Z" style="fill:#231f20"/><polygon points="103.7 59.56 98.75 59.56 98.75 56.54 103.07 56.54 103.07 54.13 98.75 54.13 98.75 51.19 103.39 51.19 103.39 48.77 95.78 48.77 95.78 61.97 103.7 61.97 103.7 59.56" style="fill:#231f20"/><path d="M108.62,54.72c0-1,0-1.67-.07-2.14h0a11.06,11.06,0,0,0,.66,1.1L114.69,62h3V48.77h-2.81v7.3a14.35,14.35,0,0,0,.07,1.82h0q-.3-.54-.66-1.08l-5.24-8h-3.2V62h2.8Z" style="fill:#231f20"/><path d="M126.41,62.2a8.63,8.63,0,0,0,3.77-.7V58.79a6.2,6.2,0,0,1-3.18.85,3.78,3.78,0,0,1-2.9-1.14,4.26,4.26,0,0,1-1.08-3,4.34,4.34,0,0,1,1.14-3.17,4,4,0,0,1,3-1.17,5.74,5.74,0,0,1,3,.79V49a9.37,9.37,0,0,0-3.26-.49,6.83,6.83,0,0,0-5.08,2,7,7,0,0,0-2,5.14,6.53,6.53,0,0,0,1.74,4.76A6.36,6.36,0,0,0,126.41,62.2Z" style="fill:#231f20"/><polygon points="140.4 59.56 135.46 59.56 135.46 56.54 139.78 56.54 139.78 54.13 135.46 54.13 135.46 51.19 140.1 51.19 140.1 48.77 132.48 48.77 132.48 61.97 140.4 61.97 140.4 59.56" style="fill:#231f20"/><path d="M57.46,17.37q0-3.39-4-3.39h-2v6.85h2Q57.47,20.83,57.46,17.37Z" style="fill:#231f20"/><path d="M19,17.37Q19,14,15,14H13.06v6.85H15Q19,20.83,19,17.37Z" style="fill:#231f20"/><path d="M69.56.13h0L0,0V70.25H162.38V.13Zm-23,10h7.8q8.35,0,8.35,7a6.72,6.72,0,0,1-2.39,5.36,9.52,9.52,0,0,1-6.41,2.05H51.53v7.58h-5ZM27,16.46h4.86V19h.07A5.57,5.57,0,0,1,37,16.08c3.49,0,5.23,2.15,5.23,6.47v9.62H37.37V23.44q0-3.64-2.62-3.65a2.6,2.6,0,0,0-2.08,1,3.68,3.68,0,0,0-.82,2.45v9H27ZM8.08,10.17h7.8q8.34,0,8.35,7a6.7,6.7,0,0,1-2.4,5.36,9.5,9.5,0,0,1-6.4,2.05H13.06v7.58h-5ZM160.11,68H2.26V42.35l65,.1v0h92.84ZM69.56,40.08V2.39h90.55V40.08Z" style="fill:#231f20"/><path d="M83.32,23.88A8.14,8.14,0,0,0,83,25.24h0a6.45,6.45,0,0,0-.27-1.32L80,14.73H76.75l4.5,13.21h3.37l4.55-13.21H86.06Z" style="fill:#231f20"/><rect x="90.75" y="14.73" width="2.97" height="13.21" style="fill:#231f20"/><path d="M104.88,23.41a5.68,5.68,0,0,0-.49-.59,4,4,0,0,0-.53-.49,1.89,1.89,0,0,0-.58-.3v0a4.66,4.66,0,0,0,1.22-.54,3.51,3.51,0,0,0,.94-.81,3.42,3.42,0,0,0,.6-1,3.78,3.78,0,0,0,.21-1.28q0-3.59-4.81-3.59H96.73V27.94h3V22.88h.8A1.14,1.14,0,0,1,101,23a1.61,1.61,0,0,1,.45.33,3.38,3.38,0,0,1,.42.52c.15.2.29.43.45.69l2,3.4h3.42L105.31,24C105.18,23.83,105,23.62,104.88,23.41Zm-2.35-3.33a2.14,2.14,0,0,1-1.54.55H99.7V17h1.35c1.38,0,2.07.58,2.07,1.73A1.85,1.85,0,0,1,102.53,20.08Z" style="fill:#231f20"/><polygon points="107.44 17.15 111.19 17.15 111.19 27.94 114.17 27.94 114.17 17.15 117.94 17.15 117.94 14.73 107.44 14.73 107.44 17.15" style="fill:#231f20"/><path d="M127.5,22.5c0,2.07-.82,3.1-2.45,3.1s-2.51-1.07-2.51-3.21V14.73h-3v7.63q0,5.81,5.37,5.81c3.7,0,5.55-2,5.55-6V14.73h-3Z" style="fill:#231f20"/><path d="M136.34,14.73l-4.8,13.21h3.22l.93-2.94h4.7l.94,2.94h3.24l-4.7-13.21Zm0,8,1.43-4.47a4.6,4.6,0,0,0,.23-1.15h.08a5.27,5.27,0,0,0,.22,1.19l1.41,4.43Z" style="fill:#231f20"/><polygon points="149.19 25.52 149.19 14.73 146.22 14.73 146.22 27.94 154.08 27.94 154.08 25.52 149.19 25.52" style="fill:#231f20"/></g></g></svg>