<svg xmlns="http://www.w3.org/2000/svg" viewBox="0 0 163.09 70.56"><defs><style>.cls-1{font-size:15.91px;font-family:SegoeUI-Bold, Segoe UI;font-weight:700;}.cls-1,.cls-2{fill:#231f20;}</style></defs><title>pnp-m365-community-docs-black</title><g id="Layer_2" data-name="Layer 2"><g id="White_Teal_Background" data-name="White / Teal Background"><text class="cls-1" transform="translate(7.69 61.41)">C</text><text class="cls-1" transform="translate(17.43 61.41)">OMMUNI</text><text class="cls-1" transform="translate(89.07 61.41)">T</text><text class="cls-1" transform="translate(98.71 61.41)">Y DOCS</text><path class="cls-2" d="M105.43,32V27.58a8.84,8.84,0,0,0,5.34,1.67,4.8,4.8,0,0,0,3-.83,2.74,2.74,0,0,0,1.08-2.31,2.63,2.63,0,0,0-1.33-2.35,6.92,6.92,0,0,0-3.65-.83h-2.12V19.08h2c3,0,4.45-1,4.45-3s-1.14-2.78-3.42-2.78a7.75,7.75,0,0,0-4.45,1.48V10.71a12.35,12.35,0,0,1,5.6-1.21,8.41,8.41,0,0,1,5.44,1.58,5,5,0,0,1,2,4.09c0,3-1.51,4.84-4.53,5.6v.08a6.19,6.19,0,0,1,3.82,1.76,5,5,0,0,1,1.4,3.57,6.12,6.12,0,0,1-2.34,5.06,10.12,10.12,0,0,1-6.46,1.86A12.39,12.39,0,0,1,105.43,32Z"/><path class="cls-2" d="M138.66,25.11a8.18,8.18,0,0,1-.59,3.15,7.57,7.57,0,0,1-4.13,4.23,8.21,8.21,0,0,1-3.17.61,7.93,7.93,0,0,1-3.44-.72,7,7,0,0,1-2.57-2.07A9.71,9.71,0,0,1,123.15,27a16.46,16.46,0,0,1-.56-4.47,18.54,18.54,0,0,1,.73-5.34,12.12,12.12,0,0,1,2.07-4.09,9.18,9.18,0,0,1,3.25-2.63,9.52,9.52,0,0,1,4.29-.94,10.7,10.7,0,0,1,4.11.63v4.2a7.52,7.52,0,0,0-3.79-1,5.1,5.1,0,0,0-4.08,1.89A6.92,6.92,0,0,0,128,17.42a9.74,9.74,0,0,0-.45,2.86h.09A5.53,5.53,0,0,1,132.44,18a6.19,6.19,0,0,1,2.56.51A5.52,5.52,0,0,1,137,20a6.69,6.69,0,0,1,1.26,2.24A9.08,9.08,0,0,1,138.66,25.11Zm-4.91.32c0-2.45-1-3.68-3-3.68a2.93,2.93,0,0,0-1.24.26,2.82,2.82,0,0,0-1,.72,3.26,3.26,0,0,0-.61,1.08,4.42,4.42,0,0,0-.21,1.4,5.32,5.32,0,0,0,.22,1.57,4.14,4.14,0,0,0,.63,1.28,3,3,0,0,0,1,.87,2.49,2.49,0,0,0,1.24.32A2.72,2.72,0,0,0,132,29a2.83,2.83,0,0,0,.94-.78,3.61,3.61,0,0,0,.6-1.21A5.43,5.43,0,0,0,133.75,25.43Z"/><path class="cls-2" d="M140.7,32.11V27.82a9.42,9.42,0,0,0,5,1.43,4.7,4.7,0,0,0,3.11-.95,3.18,3.18,0,0,0,1.12-2.57q0-3.39-4.79-3.39a35.47,35.47,0,0,0-4.07.27l.86-12.72H154V14h-8.24l-.32,4.57c.82-.07,1.53-.1,2.12-.1a7.77,7.77,0,0,1,5.5,1.85,6.42,6.42,0,0,1,2,5,7.33,7.33,0,0,1-2.37,5.64,9.09,9.09,0,0,1-6.42,2.19A13.69,13.69,0,0,1,140.7,32.11Z"/><path class="cls-2" d="M9.92,51.75a5.88,5.88,0,0,0-1.65,4.33,5.49,5.49,0,0,0,1.46,4,5.37,5.37,0,0,0,4,1.51A7.37,7.37,0,0,0,17,61V58.73a5.28,5.28,0,0,1-2.69.71,3.19,3.19,0,0,1-2.44-1,3.58,3.58,0,0,1-.91-2.58,3.67,3.67,0,0,1,1-2.67,3.37,3.37,0,0,1,2.53-1,4.89,4.89,0,0,1,2.55.66V50.5a7.85,7.85,0,0,0-2.75-.41A5.76,5.76,0,0,0,9.92,51.75Z"/><path class="cls-2" d="M23.59,50.09a5.3,5.3,0,0,0-4.06,1.63A6,6,0,0,0,18,56a5.61,5.61,0,0,0,1.51,4.06,5.2,5.2,0,0,0,3.9,1.56,5.23,5.23,0,0,0,4-1.61,5.88,5.88,0,0,0,1.53-4.23,5.76,5.76,0,0,0-1.47-4.12A5.06,5.06,0,0,0,23.59,50.09Zm1.93,8.41a2.69,2.69,0,0,1-4.1,0,4.84,4.84,0,0,1,0-5.24,2.53,2.53,0,0,1,2.1-1,2.41,2.41,0,0,1,2,1,4.35,4.35,0,0,1,.74,2.69A4,4,0,0,1,25.52,58.5Z"/><path class="cls-2" d="M37.61,56.86a14.89,14.89,0,0,0-.45,1.61h0a10,10,0,0,0-.4-1.59l-2.28-6.61H30.77V61.41H33V55.25c0-.83,0-1.79-.1-2.89H33a15.51,15.51,0,0,0,.35,1.56L36,61.41h2.05l2.61-7.57A12.28,12.28,0,0,0,41,52.36h.06C41,53.23,41,54,41,54.75v6.66h2.47V50.27H39.88Z"/><path class="cls-2" d="M52.83,56.86c-.15.46-.3,1-.44,1.61h0A9,9,0,0,0,52,56.88l-2.28-6.61H46V61.41h2.26V55.25c0-.83,0-1.79-.1-2.89h.07a13,13,0,0,0,.35,1.56l2.65,7.49h2.05l2.62-7.57a14.62,14.62,0,0,0,.35-1.48h.06c-.06.87-.1,1.67-.1,2.39v6.66h2.48V50.27H55.11Z"/><path class="cls-2" d="M65.72,59.44c-1.41,0-2.11-.9-2.11-2.7V50.27H61.09v6.44c0,3.26,1.51,4.9,4.54,4.9s4.68-1.67,4.68-5V50.27H67.8v6.56C67.8,58.57,67.11,59.44,65.72,59.44Z"/><path class="cls-2" d="M75.1,55.29q0-1.22-.06-1.8h0a9.08,9.08,0,0,0,.56.92l4.59,7h2.53V50.27H80.38v6.16A11.61,11.61,0,0,0,80.45,58h0c-.17-.3-.36-.6-.56-.91l-4.42-6.78H72.73V61.41H75.1Z"/><rect class="cls-2" x="85.3" y="50.27" width="2.51" height="11.14"/><polygon class="cls-2" points="92.47 61.41 94.99 61.41 94.99 52.32 98.17 52.32 98.17 50.27 89.31 50.27 89.31 52.32 92.47 52.32 92.47 61.41"/><path class="cls-2" d="M102.25,61.41h2.51v-4l3.63-7.18h-2.66l-1.83,4.19a4.27,4.27,0,0,0-.24.88h0a9.43,9.43,0,0,0-.26-.91l-1.79-4.16H98.71l3.54,7.23Z"/><path class="cls-2" d="M122.3,59.86a5.5,5.5,0,0,0,1.62-4.16q0-5.43-5.94-5.43h-4V61.41h4A6,6,0,0,0,122.3,59.86Zm-5.76-.48V52.32h1.23a3.53,3.53,0,0,1,2.59.91,3.38,3.38,0,0,1,.92,2.5,3.71,3.71,0,0,1-.93,2.67,3.37,3.37,0,0,1-2.56,1Z"/><path class="cls-2" d="M130.47,61.61a5.27,5.27,0,0,0,4-1.61A5.91,5.91,0,0,0,136,55.77a5.76,5.76,0,0,0-1.47-4.12,5.06,5.06,0,0,0-3.86-1.56,5.28,5.28,0,0,0-4.05,1.63A6,6,0,0,0,125.07,56a5.61,5.61,0,0,0,1.5,4.06A5.2,5.2,0,0,0,130.47,61.61Zm-2-8.37a2.5,2.5,0,0,1,2.09-1,2.4,2.4,0,0,1,2,1,4.28,4.28,0,0,1,.74,2.69,4,4,0,0,1-.76,2.6,2.5,2.5,0,0,1-2.06.94,2.47,2.47,0,0,1-2-1,4.79,4.79,0,0,1,0-5.24Z"/><path class="cls-2" d="M142.63,61.61a7.41,7.41,0,0,0,3.19-.59V58.73a5.28,5.28,0,0,1-2.69.71,3.23,3.23,0,0,1-2.45-1,3.63,3.63,0,0,1-.91-2.58,3.68,3.68,0,0,1,1-2.67,3.35,3.35,0,0,1,2.53-1,4.94,4.94,0,0,1,2.55.66V50.5a7.89,7.89,0,0,0-2.75-.41,5.77,5.77,0,0,0-4.29,1.66,5.88,5.88,0,0,0-1.65,4.33,5.5,5.5,0,0,0,1.47,4A5.35,5.35,0,0,0,142.63,61.61Z"/><path class="cls-2" d="M149.79,56.62l1,.41a5.93,5.93,0,0,1,.77.42,2.13,2.13,0,0,1,.51.47,1,1,0,0,1,.19.59.83.83,0,0,1-.12.44,1.09,1.09,0,0,1-.35.36,2.14,2.14,0,0,1-.59.24,3.49,3.49,0,0,1-.83.08,4.76,4.76,0,0,1-3.07-1.13V61a5.34,5.34,0,0,0,1.43.46,8.9,8.9,0,0,0,1.75.16,8.35,8.35,0,0,0,1.69-.17,4.06,4.06,0,0,0,1.41-.57,2.76,2.76,0,0,0,1-1,3.14,3.14,0,0,0,.36-1.57,3.28,3.28,0,0,0-.2-1.18,2.85,2.85,0,0,0-.59-.91,4.41,4.41,0,0,0-.91-.71,9.58,9.58,0,0,0-1.2-.59l-.88-.39a4.8,4.8,0,0,1-.66-.39,2.08,2.08,0,0,1-.42-.42.89.89,0,0,1-.15-.5.84.84,0,0,1,.14-.47,1.14,1.14,0,0,1,.37-.35,2.14,2.14,0,0,1,.59-.23,3.67,3.67,0,0,1,.78-.08,3.77,3.77,0,0,1,.65,0,4.56,4.56,0,0,1,.7.14,5.49,5.49,0,0,1,.68.24,4,4,0,0,1,.61.35V50.51a6.42,6.42,0,0,0-1.24-.32,10.12,10.12,0,0,0-1.54-.1,7,7,0,0,0-1.68.19,4.11,4.11,0,0,0-1.4.59,2.93,2.93,0,0,0-.95,1,3.08,3.08,0,0,0-.35,1.5,2.92,2.92,0,0,0,.64,1.89A4.92,4.92,0,0,0,149.79,56.62Z"/><path class="cls-2" d="M80.93,20.08c0-1.69-.07-3.67-.21-5.91h.14a30.21,30.21,0,0,0,.72,3.18L87,32.7h4.2l5.34-15.51a21.88,21.88,0,0,0,.72-3h.13c-.13,1.78-.19,3.41-.19,4.88V32.7h5.07V9.89H95L90.3,23.38a33.1,33.1,0,0,0-.91,3.29h-.1a19.18,19.18,0,0,0-.81-3.26L83.82,9.89H76.3V32.7h4.63Z"/><path class="cls-2" d="M57.72,17.44q0-3.41-4-3.4h-2v6.88h2Q57.73,20.92,57.72,17.44Z"/><path class="cls-2" d="M19.07,17.44q0-3.41-4-3.4h-2v6.88h2Q19.07,20.92,19.07,17.44Z"/><path class="cls-2" d="M69.87.13h0L0,0V70.56H163.09V.13ZM46.76,10.21h7.83q8.38,0,8.39,7.05a6.72,6.72,0,0,1-2.41,5.38,9.5,9.5,0,0,1-6.43,2.06H51.76v7.61h-5ZM27.11,16.53H32V19h.06a5.6,5.6,0,0,1,5.09-2.88q5.26,0,5.26,6.5v9.66H37.54V23.54q0-3.66-2.64-3.66a2.59,2.59,0,0,0-2.08,1A3.66,3.66,0,0,0,32,23.31v9H27.11Zm-19-6.32H16q8.39,0,8.38,7.05a6.74,6.74,0,0,1-2.4,5.38A9.53,9.53,0,0,1,15.5,24.7H13.11v7.61h-5Zm152.7,58.08H2.27V42.53l65.29.11h93.26Zm0-28H69.87V2.4h90.95Z"/></g></g></svg>