<svg xmlns="http://www.w3.org/2000/svg" viewBox="0 0 163.53 71.04"><defs><style>.cls-1{fill:#2e76bc;}</style></defs><g id="Layer_2" data-name="Layer 2"><g id="Blue-Logo"><path class="cls-1" d="M32.53,60.89a5.79,5.79,0,0,0,2.1,1.28,8.18,8.18,0,0,0,2.8.45,9.48,9.48,0,0,0,4-.71v-2.3a6.58,6.58,0,0,1-3.33.83,5.09,5.09,0,0,1-1.81-.3,3.62,3.62,0,0,1-1.36-.87A3.81,3.81,0,0,1,34,57.91a5.65,5.65,0,0,1,0-3.66A3.81,3.81,0,0,1,35,52.83a4,4,0,0,1,1.44-.91,5.33,5.33,0,0,1,1.88-.32,6.28,6.28,0,0,1,3.1.77V49.92A10,10,0,0,0,38,49.43a8.42,8.42,0,0,0-3,.49,6.8,6.8,0,0,0-2.29,1.41,6.46,6.46,0,0,0-1.49,2.17,7.19,7.19,0,0,0-.52,2.79,7,7,0,0,0,.46,2.6A5.63,5.63,0,0,0,32.53,60.89Z"/><path class="cls-1" d="M44.72,60.83a6.09,6.09,0,0,0,2.07,1.33,8.07,8.07,0,0,0,5.4,0A6.16,6.16,0,0,0,54.3,60.8a5.93,5.93,0,0,0,1.37-2.12,7.5,7.5,0,0,0,.49-2.79,7.21,7.21,0,0,0-.46-2.58,5.93,5.93,0,0,0-3.33-3.4,7,7,0,0,0-2.66-.48,7.74,7.74,0,0,0-2.85.49,6.08,6.08,0,0,0-2.13,1.4,6,6,0,0,0-1.35,2.14,7.65,7.65,0,0,0-.47,2.72,6.89,6.89,0,0,0,.48,2.61A5.91,5.91,0,0,0,44.72,60.83Zm1.44-6.61a4.14,4.14,0,0,1,.73-1.4,3.11,3.11,0,0,1,1.16-.9,4,4,0,0,1,3.1,0,2.93,2.93,0,0,1,1.12.88,3.85,3.85,0,0,1,.67,1.41,7.17,7.17,0,0,1,.23,1.88,6.53,6.53,0,0,1-.24,1.85,3.91,3.91,0,0,1-.7,1.38,3.08,3.08,0,0,1-1.15.86,4.12,4.12,0,0,1-1.58.29A3.48,3.48,0,0,1,48,60.14a3.21,3.21,0,0,1-1.14-.89,4,4,0,0,1-.7-1.39,6.62,6.62,0,0,1,0-3.64Z"/><path class="cls-1" d="M61.71,55.05c0-.45,0-.84,0-1.17s0-.58,0-.76h0a4.46,4.46,0,0,0,.31.54,8,8,0,0,0,.52.76l5.78,8h2.87V49.64H68.52v7.22c0,.44,0,.82,0,1.13a5.41,5.41,0,0,0,.06.72h0l-.29-.48c-.11-.18-.28-.42-.49-.71l-5.67-7.88H59.06V62.4h2.65Z"/><polygon class="cls-1" points="77.4 62.4 80.26 62.4 80.26 51.81 84.16 51.81 84.16 49.64 73.5 49.64 73.5 51.81 77.4 51.81 77.4 62.4"/><path class="cls-1" d="M89.34,57.43H90a1.93,1.93,0,0,1,.55.07,1.19,1.19,0,0,1,.47.25,2.29,2.29,0,0,1,.46.47,6.93,6.93,0,0,1,.47.74l2,3.44h3.35l-2.48-4a6.06,6.06,0,0,0-.9-1.15,2.77,2.77,0,0,0-1-.64v0a5.26,5.26,0,0,0,1.24-.49,3.67,3.67,0,0,0,1-.76A3.23,3.23,0,0,0,96,53.07a2.93,2.93,0,0,0-1.23-2.55,6,6,0,0,0-3.55-.88H86.48V62.4h2.86Zm0-5.8h1.32a3.22,3.22,0,0,1,1.73.38A1.44,1.44,0,0,1,93,53.32a2,2,0,0,1-.19.92,1.86,1.86,0,0,1-.55.66,2.51,2.51,0,0,1-.84.39,4.12,4.12,0,0,1-1.09.13h-1Z"/><path class="cls-1" d="M99.92,60.83A6.13,6.13,0,0,0,102,62.16a8,8,0,0,0,5.39,0,6.16,6.16,0,0,0,2.11-1.35,5.93,5.93,0,0,0,1.37-2.12,7.5,7.5,0,0,0,.49-2.79,7,7,0,0,0-.46-2.58,5.79,5.79,0,0,0-1.3-2,5.89,5.89,0,0,0-2-1.36,7,7,0,0,0-2.65-.48,7.71,7.71,0,0,0-2.85.49,6.21,6.21,0,0,0-2.14,1.4,6.14,6.14,0,0,0-1.35,2.14,7.65,7.65,0,0,0-.47,2.72,6.89,6.89,0,0,0,.48,2.61A6.06,6.06,0,0,0,99.92,60.83Zm1.44-6.61a4.14,4.14,0,0,1,.73-1.4,3.19,3.19,0,0,1,1.16-.9,3.72,3.72,0,0,1,1.56-.32,3.79,3.79,0,0,1,1.55.3,2.9,2.9,0,0,1,1.11.88,3.85,3.85,0,0,1,.67,1.41,7.17,7.17,0,0,1,.23,1.88,6.53,6.53,0,0,1-.24,1.85,3.91,3.91,0,0,1-.7,1.38,3.08,3.08,0,0,1-1.15.86,4.08,4.08,0,0,1-1.58.29,3.52,3.52,0,0,1-1.51-.31,3.09,3.09,0,0,1-1.13-.89,4.06,4.06,0,0,1-.71-1.39,6.42,6.42,0,0,1-.24-1.82A6.11,6.11,0,0,1,101.36,54.22Z"/><polygon class="cls-1" points="122.26 60.24 117.13 60.24 117.13 49.64 114.27 49.64 114.27 62.4 122.26 62.4 122.26 60.24"/><path class="cls-1" d="M127,56.87c.58.25,1,.47,1.42.65a6,6,0,0,1,.89.52,1.42,1.42,0,0,1,.45.48,1.21,1.21,0,0,1,.14.58,1.24,1.24,0,0,1-.58,1.06,3.16,3.16,0,0,1-1.8.4,6.19,6.19,0,0,1-1-.08,8.08,8.08,0,0,1-1-.24,5.29,5.29,0,0,1-.92-.39,4.65,4.65,0,0,1-.81-.51V61.9a3.55,3.55,0,0,0,.72.3c.29.08.59.16.91.22a7.86,7.86,0,0,0,1,.15,8.36,8.36,0,0,0,1,0,8.59,8.59,0,0,0,2.2-.25,5,5,0,0,0,1.63-.74,3.21,3.21,0,0,0,1-1.18,3.54,3.54,0,0,0,.35-1.59,3.62,3.62,0,0,0-.21-1.26,3.4,3.4,0,0,0-.65-1.05,4.93,4.93,0,0,0-1.09-.88,10.84,10.84,0,0,0-1.53-.78c-.54-.23-1-.43-1.31-.6a4.64,4.64,0,0,1-.79-.48,1.25,1.25,0,0,1-.39-.46,1.19,1.19,0,0,1-.11-.51,1.1,1.1,0,0,1,.62-1,3.3,3.3,0,0,1,1.72-.38,6.67,6.67,0,0,1,1.65.21,5.06,5.06,0,0,1,1.46.62V49.9a5.54,5.54,0,0,0-1.35-.35,11.82,11.82,0,0,0-1.81-.12,8.26,8.26,0,0,0-2,.22,5.34,5.34,0,0,0-1.61.67,3.36,3.36,0,0,0-1.07,1.12,3,3,0,0,0-.39,1.55,3.39,3.39,0,0,0,.76,2.23A6.4,6.4,0,0,0,127,56.87Z"/><path class="cls-1" d="M80.57,20.17a10.07,10.07,0,0,0,4,2.75c.71.29,1.37.57,2,.85a11.59,11.59,0,0,1,1.59.87,4.39,4.39,0,0,1,1.06,1,2,2,0,0,1,.38,1.21,1.83,1.83,0,0,1-.24.92,2.23,2.23,0,0,1-.73.74,4.1,4.1,0,0,1-1.23.49,7.27,7.27,0,0,1-1.72.18,10,10,0,0,1-6.38-2.35V32a11.1,11.1,0,0,0,3,1,19.23,19.23,0,0,0,3.63.32,17.36,17.36,0,0,0,3.52-.35,8.79,8.79,0,0,0,2.94-1.17,6,6,0,0,0,2-2.12,6.52,6.52,0,0,0,.73-3.24,6.58,6.58,0,0,0-.42-2.45A5.67,5.67,0,0,0,93.49,22a9.22,9.22,0,0,0-1.89-1.47,21.59,21.59,0,0,0-2.5-1.23c-.68-.28-1.29-.55-1.82-.81a9.52,9.52,0,0,1-1.38-.8,3.77,3.77,0,0,1-.87-.87,1.87,1.87,0,0,1-.31-1,1.79,1.79,0,0,1,.28-1,2.35,2.35,0,0,1,.77-.73A4.32,4.32,0,0,1,87,13.65a6.77,6.77,0,0,1,1.62-.17,11,11,0,0,1,1.36.09,12.89,12.89,0,0,1,1.45.3,10.33,10.33,0,0,1,1.41.51,7.42,7.42,0,0,1,1.27.71V10.28a12.49,12.49,0,0,0-2.58-.67,21.63,21.63,0,0,0-3.2-.22,14.58,14.58,0,0,0-3.49.4A8.73,8.73,0,0,0,81.94,11a6,6,0,0,0-2,2.13,6.14,6.14,0,0,0-.73,3.09A6,6,0,0,0,80.57,20.17Z"/><path class="cls-1" d="M104.15,24.9h2.49a10,10,0,0,0,6.71-2.15,7.06,7.06,0,0,0,2.51-5.62q0-7.35-8.75-7.35H98.94V32.84h5.21Zm0-11.13h2q4.17,0,4.17,3.55c0,2.42-1.39,3.64-4.17,3.64h-2Z"/><polygon class="cls-1" points="124.47 23.88 131.98 23.88 131.98 19.67 124.47 19.67 124.47 14.01 132.64 14.01 132.64 9.78 119.25 9.78 119.25 32.84 124.47 32.84 124.47 23.88"/><path class="cls-1" d="M139.8,32.84l2.4-4.49a9.94,9.94,0,0,0,.66-1.44h.07c.27.64.5,1.14.69,1.49L146,32.84h5.88l-5.42-8.49,5.45-8h-5.55L144,21a10.46,10.46,0,0,0-.69,1.57h-.07a10.22,10.22,0,0,0-.66-1.54l-2.36-4.62h-5.91l5.25,8.27-5.59,8.2Z"/><path class="cls-1" d="M57.86,17.49q0-3.42-4-3.42h-2V21h2C56.53,21,57.86,19.81,57.86,17.49Z"/><path class="cls-1" d="M19.12,17.49q0-3.42-4-3.42h-2V21h2C17.79,21,19.12,19.81,19.12,17.49Z"/><path class="cls-1" d="M163.53.13H70L0,0V71H163.51V42.76h0ZM161.25,2.4V40.48H70V2.4ZM46.88,10.24h7.85q8.42,0,8.41,7.06a6.77,6.77,0,0,1-2.41,5.4,9.57,9.57,0,0,1-6.45,2.06H51.89V32.4h-5ZM27.17,16.57h4.91v2.51h.06a5.62,5.62,0,0,1,5.1-2.89q5.28,0,5.28,6.52V32.4H37.63V23.6q0-3.68-2.64-3.67a2.61,2.61,0,0,0-2.09,1,3.68,3.68,0,0,0-.82,2.47v9H27.17Zm-19-6.33H16q8.4,0,8.41,7.06A6.75,6.75,0,0,1,22,22.7a9.54,9.54,0,0,1-6.44,2.06H13.15V32.4h-5ZM161.23,68.76H2.28V42.94h159Z"/></g></g></svg>