<svg xmlns="http://www.w3.org/2000/svg" viewBox="0 0 163.51 70.74"><defs><style>.cls-1{fill:#2e76bc;}</style></defs><g id="Layer_2" data-name="Layer 2"><g id="Blue-Logo"><path class="cls-1" d="M22.13,48A6.67,6.67,0,0,0,17,50.09a7.8,7.8,0,0,0-1.9,5.49,7.42,7.42,0,0,0,1.86,5.21,6.5,6.5,0,0,0,5,2A6.59,6.59,0,0,0,27,60.76a7.85,7.85,0,0,0,1.89-5.52A7.38,7.38,0,0,0,27,50,6.32,6.32,0,0,0,22.13,48Zm2.73,11a3.66,3.66,0,0,1-2.95,1.25A3.47,3.47,0,0,1,19.08,59a6.26,6.26,0,0,1,0-7.13A3.59,3.59,0,0,1,22,50.53a3.52,3.52,0,0,1,2.88,1.26A5.67,5.67,0,0,1,26,55.46,5.38,5.38,0,0,1,24.86,59.05Z"/><polygon class="cls-1" points="30.88 62.58 33.68 62.58 33.68 56.79 38.44 56.79 38.44 54.35 33.68 54.35 33.68 50.7 38.85 50.7 38.85 48.25 30.88 48.25 30.88 62.58"/><polygon class="cls-1" points="40.81 62.58 43.6 62.58 43.6 56.79 48.37 56.79 48.37 54.35 43.6 54.35 43.6 50.7 48.77 50.7 48.77 48.25 40.81 48.25 40.81 62.58"/><rect class="cls-1" x="50.72" y="48.25" width="2.86" height="14.33"/><path class="cls-1" d="M63.05,48a7.24,7.24,0,0,0-5.33,2.12,7.51,7.51,0,0,0-2.11,5.53,7.18,7.18,0,0,0,1.88,5.16,6.63,6.63,0,0,0,5,2,8.65,8.65,0,0,0,4-.84l.13-.07V59.17l-.38.25A5.91,5.91,0,0,1,63,60.3,4.35,4.35,0,0,1,59.74,59a4.85,4.85,0,0,1-1.23-3.47,5.11,5.11,0,0,1,1.32-3.67,4.66,4.66,0,0,1,3.46-1.36,5.69,5.69,0,0,1,3,.8l.38.22V48.67l-.15-.06A8.76,8.76,0,0,0,63.05,48Z"/><polygon class="cls-1" points="77.02 60.14 71.55 60.14 71.55 56.55 76.3 56.55 76.3 54.11 71.55 54.11 71.55 50.7 76.71 50.7 76.71 48.25 68.75 48.25 68.75 62.58 77.02 62.58 77.02 60.14"/><path class="cls-1" d="M87.41,62.81a5.91,5.91,0,0,0,3.85-1.2,4,4,0,0,0,1.49-3.2A3.38,3.38,0,0,0,91.81,56a3.64,3.64,0,0,0-1.66-1,3.5,3.5,0,0,0,2.14-3.45A3.21,3.21,0,0,0,91.09,49,4.73,4.73,0,0,0,88,48a7,7,0,0,0-3.45.82l-.12.07v2.66l.4-.33a3.89,3.89,0,0,1,2.46-.94c1.53,0,2.24.57,2.24,1.8s-1,2-3,2H85.29v2.3h1.32c2.26,0,3.35.69,3.35,2.1a1.76,1.76,0,0,1-.73,1.5,3.33,3.33,0,0,1-2,.58,4.57,4.57,0,0,1-2.89-1l-.41-.32V62L84,62A6.55,6.55,0,0,0,87.41,62.81Z"/><path class="cls-1" d="M96,61.11a4.24,4.24,0,0,0,1.59,1.28,4.66,4.66,0,0,0,2,.43,5,5,0,0,0,1.9-.36,4.46,4.46,0,0,0,1.53-1,4.69,4.69,0,0,0,1-1.56,5.35,5.35,0,0,0,.36-2,5.82,5.82,0,0,0-.29-1.87,4.13,4.13,0,0,0-.85-1.44,3.85,3.85,0,0,0-1.33-.91,4.8,4.8,0,0,0-1.73-.31,4.09,4.09,0,0,0-1.9.42,3.93,3.93,0,0,0-.86.64A6.43,6.43,0,0,1,97.73,53a4.45,4.45,0,0,1,.73-1.48,3.23,3.23,0,0,1,1.1-.89,3.88,3.88,0,0,1,2.59-.14,6.09,6.09,0,0,1,1,.41l.37.19V48.51l-.15-.07a4,4,0,0,0-1.09-.31,8.26,8.26,0,0,0-1.46-.11,5.44,5.44,0,0,0-4.41,2.14,7.67,7.67,0,0,0-1.3,2.57,11.47,11.47,0,0,0-.47,3.47A10.56,10.56,0,0,0,95,59,6,6,0,0,0,96,61.11Zm1.51-3.3a2.45,2.45,0,0,1,.13-.81,2.15,2.15,0,0,1,.4-.69,2,2,0,0,1,.66-.48,2.17,2.17,0,0,1,.91-.19,2.31,2.31,0,0,1,.91.17,2,2,0,0,1,.62.48,2.21,2.21,0,0,1,.38.75,4.09,4.09,0,0,1,.13,1,3.41,3.41,0,0,1-.14,1,2.28,2.28,0,0,1-.39.76,1.85,1.85,0,0,1-.62.49,2.07,2.07,0,0,1-1.8-.06,2.12,2.12,0,0,1-.67-.63,3.2,3.2,0,0,1-.39-.86A3.49,3.49,0,0,1,97.54,57.81Z"/><path class="cls-1" d="M109.45,62.83a5.71,5.71,0,0,0,3.94-1.3,4.49,4.49,0,0,0,1.46-3.48,4.29,4.29,0,0,0-1.28-3.27,5,5,0,0,0-3.57-1.2l-.94,0,.2-3h5V48.25h-7.29L106.4,56l.29,0c1.13-.08,1.89-.12,2.25-.12a3.92,3.92,0,0,1,2.35.61,1.91,1.91,0,0,1,.77,1.63,2.13,2.13,0,0,1-.77,1.73,3.22,3.22,0,0,1-2.1.66,4.67,4.67,0,0,1-2.62-.88l-.39-.26v2.76l.13.08A6.47,6.47,0,0,0,109.45,62.83Z"/><path class="cls-1" d="M128.79,62.81a8.65,8.65,0,0,0,4-.84l.13-.07V59.17l-.38.25a5.91,5.91,0,0,1-3.26.88A4.35,4.35,0,0,1,126,59a4.85,4.85,0,0,1-1.23-3.47,5.11,5.11,0,0,1,1.32-3.67,4.64,4.64,0,0,1,3.46-1.36,5.69,5.69,0,0,1,3,.8l.38.22V48.67l-.15-.06a8.76,8.76,0,0,0-3.43-.59A7.24,7.24,0,0,0,124,50.14a7.51,7.51,0,0,0-2.11,5.53,7.18,7.18,0,0,0,1.88,5.16A6.63,6.63,0,0,0,128.79,62.81Z"/><polygon class="cls-1" points="143.21 60.14 137.85 60.14 137.85 48.25 135.05 48.25 135.05 62.58 143.21 62.58 143.21 60.14"/><rect class="cls-1" x="144.7" y="48.25" width="2.86" height="14.33"/><path class="cls-1" d="M57.86,17.49q0-3.42-4-3.42h-2V21h2C56.53,21,57.86,19.81,57.86,17.49Z"/><path class="cls-1" d="M19.12,17.49q0-3.42-4-3.42h-2V21h2C17.79,21,19.12,19.81,19.12,17.49Z"/><path class="cls-1" d="M70,.13h0L0,0V70.74H163.51V.13ZM46.88,10.24h7.85q8.42,0,8.41,7.06a6.77,6.77,0,0,1-2.41,5.4,9.57,9.57,0,0,1-6.45,2.06H51.89V32.4h-5ZM27.17,16.57h4.91v2.51h.06a5.62,5.62,0,0,1,5.1-2.89q5.28,0,5.28,6.52V32.4H37.63V23.6q0-3.68-2.64-3.67a2.61,2.61,0,0,0-2.09,1,3.68,3.68,0,0,0-.82,2.47v9H27.17Zm-19-6.33H16q8.4,0,8.41,7.06A6.75,6.75,0,0,1,22,22.7a9.54,9.54,0,0,1-6.44,2.06H13.15V32.4h-5ZM161.23,68.46H2.28V42.64l65.45.11h93.5ZM70,40.35V2.4h91.19v38Z"/><path class="cls-1" d="M94.37,12.19a12.34,12.34,0,0,0-3.46,9.1A11.58,11.58,0,0,0,94,29.72c2.05,2.11,4.88,3.16,8.46,3.16a15.4,15.4,0,0,0,6.69-1.24V26.83a11,11,0,0,1-5.64,1.5,6.74,6.74,0,0,1-5.14-2,7.56,7.56,0,0,1-1.91-5.41,7.72,7.72,0,0,1,2-5.61,7.1,7.1,0,0,1,5.32-2.07,10.29,10.29,0,0,1,5.35,1.4V9.56a17,17,0,0,0-5.77-.86A12.12,12.12,0,0,0,94.37,12.19Z"/><polygon class="cls-1" points="120.49 9.09 115.22 9.09 115.22 32.47 129.15 32.47 129.15 28.2 120.49 28.2 120.49 9.09"/><rect class="cls-1" x="133.63" y="9.09" width="5.27" height="23.38"/></g></g></svg>