<svg xmlns="http://www.w3.org/2000/svg" viewBox="0 0 163.12 70.88"><defs><style>.cls-1{fill:#2e76bc;}</style></defs><g id="Layer_2" data-name="Layer 2"><g id="Blue-Logo"><polygon class="cls-1" points="48.19 60.1 43.08 60.1 43.08 49.52 40.22 49.52 40.22 62.25 48.19 62.25 48.19 60.1"/><rect class="cls-1" x="52.06" y="49.52" width="2.85" height="12.73"/><path class="cls-1" d="M66.67,62a4.43,4.43,0,0,0,1.54-.75,3.52,3.52,0,0,0,1-1.18,3.36,3.36,0,0,0,.35-1.54,3.17,3.17,0,0,0-.2-1.11,2.58,2.58,0,0,0-.62-.93,3.18,3.18,0,0,0-1-.67,4.43,4.43,0,0,0-1.39-.35v0a3.85,3.85,0,0,0,1.93-1.11,2.74,2.74,0,0,0,.67-1.84,2.5,2.5,0,0,0-1.12-2.16,5.79,5.79,0,0,0-3.31-.79H59.82V62.25H64.7A6.85,6.85,0,0,0,66.67,62Zm-4-10.5H63.8a3.54,3.54,0,0,1,1.63.29A1.14,1.14,0,0,1,66,52.89a1.65,1.65,0,0,1-.56,1.36,2.57,2.57,0,0,1-1.63.45H62.67Zm0,8.8V56.68H64a3.45,3.45,0,0,1,1.93.43,1.59,1.59,0,0,1,.63,1.39A1.5,1.5,0,0,1,66,59.87a3.13,3.13,0,0,1-1.77.42Z"/><path class="cls-1" d="M76.22,57.29h.64a2.28,2.28,0,0,1,.54.07,1.34,1.34,0,0,1,.47.25,2.64,2.64,0,0,1,.45.48,6.62,6.62,0,0,1,.48.73l2,3.43H84.1l-2.47-4a6.77,6.77,0,0,0-.9-1.15,2.7,2.7,0,0,0-1-.63v0A5.18,5.18,0,0,0,81,56a3.67,3.67,0,0,0,1-.76,3.19,3.19,0,0,0,.63-1A3.24,3.24,0,0,0,82.81,53a2.94,2.94,0,0,0-1.23-2.55A6.08,6.08,0,0,0,78,49.52H73.36V62.25h2.86Zm0-5.78h1.31a3.15,3.15,0,0,1,1.72.38,1.42,1.42,0,0,1,.58,1.31,2,2,0,0,1-.2.92,1.8,1.8,0,0,1-.54.65,2.51,2.51,0,0,1-.84.39,4.12,4.12,0,0,1-1.09.13h-.94Z"/><path class="cls-1" d="M89.36,59.29h4.8l1.06,3H98.3L93.4,49.52H90.2L85.26,62.25h3.08Zm2-6.06c.07-.24.14-.48.2-.71s.1-.45.13-.63h.06a3.53,3.53,0,0,0,.11.65c.07.24.13.46.21.67l1.4,4H90.05Z"/><path class="cls-1" d="M104.14,57.29h.64a2.28,2.28,0,0,1,.54.07,1.34,1.34,0,0,1,.47.25,2.33,2.33,0,0,1,.45.48,6.62,6.62,0,0,1,.48.73l2,3.43H112l-2.47-4a6.77,6.77,0,0,0-.9-1.15,2.7,2.7,0,0,0-1-.63v0a5.43,5.43,0,0,0,1.24-.49,3.79,3.79,0,0,0,1-.76,3.19,3.19,0,0,0,.63-1,3.24,3.24,0,0,0,.22-1.23,2.94,2.94,0,0,0-1.23-2.55,6.08,6.08,0,0,0-3.54-.88h-4.68V62.25h2.86Zm0-5.78h1.31a3.15,3.15,0,0,1,1.72.38,1.42,1.42,0,0,1,.58,1.31,2,2,0,0,1-.2.92,1.8,1.8,0,0,1-.54.65,2.51,2.51,0,0,1-.84.39,4.12,4.12,0,0,1-1.09.13h-.94Z"/><path class="cls-1" d="M117.47,62.25h2.85v-4.6l4.39-8.13h-3l-2.37,4.86c-.07.14-.14.29-.2.43s-.1.3-.14.46h0c-.08-.23-.15-.42-.2-.58a1.9,1.9,0,0,0-.14-.33l-2.27-4.84h-3.15l4.29,8.16Z"/><path class="cls-1" d="M57.73,17.45c0-2.28-1.33-3.41-4-3.41h-2v6.89h2Q57.74,20.93,57.73,17.45Z"/><path class="cls-1" d="M19.08,17.45c0-2.28-1.34-3.41-4-3.41h-2v6.89h2C17.74,20.93,19.08,19.77,19.08,17.45Z"/><path class="cls-1" d="M69.88.13h0L0,0V42.54H0V70.88H163.12V.13Zm91,2.27v38h-91V2.4ZM46.77,10.22H54.6q8.38,0,8.39,7a6.74,6.74,0,0,1-2.41,5.39,9.55,9.55,0,0,1-6.43,2.06H51.77v7.61h-5ZM27.11,16.54H32V19h.06a5.63,5.63,0,0,1,5.1-2.88c3.5,0,5.26,2.17,5.26,6.51v9.66H37.54V23.55c0-2.45-.87-3.67-2.63-3.67a2.62,2.62,0,0,0-2.09,1A3.68,3.68,0,0,0,32,23.32v9H27.11Zm-19-6.32H16q8.39,0,8.39,7a6.74,6.74,0,0,1-2.41,5.39,9.57,9.57,0,0,1-6.43,2.06H13.12v7.61h-5ZM160.85,68.6H2.27V42.84H160.85Z"/><path class="cls-1" d="M100.53,32.8a7.9,7.9,0,0,0,6.29-2.48c1.45-1.66,2.17-4.06,2.17-7.18V9.07h-5.24V22.93q0,5.34-3.59,5.34a4.91,4.91,0,0,1-3-1v4.93A9,9,0,0,0,100.53,32.8Z"/><path class="cls-1" d="M122.34,22.36c.72.29,1.39.58,2,.86a11.31,11.31,0,0,1,1.61.88,4.06,4.06,0,0,1,1.06,1,2,2,0,0,1,.39,1.22,1.91,1.91,0,0,1-.24.94,2.12,2.12,0,0,1-.74.75,4.06,4.06,0,0,1-1.24.49,7.36,7.36,0,0,1-1.73.18,9.74,9.74,0,0,1-3.35-.59A10.18,10.18,0,0,1,117,26.3v5.2a11,11,0,0,0,3,1,19.45,19.45,0,0,0,3.65.32,17,17,0,0,0,3.55-.35,8.65,8.65,0,0,0,3-1.18,6,6,0,0,0,2-2.15,6.58,6.58,0,0,0,.74-3.28,6.75,6.75,0,0,0-.42-2.48,5.74,5.74,0,0,0-1.22-1.89A8.78,8.78,0,0,0,129.38,20a20.24,20.24,0,0,0-2.51-1.25c-.69-.28-1.3-.55-1.84-.82a9.65,9.65,0,0,1-1.39-.81,3.61,3.61,0,0,1-.87-.88,1.82,1.82,0,0,1-.31-1,1.79,1.79,0,0,1,.27-1,2.52,2.52,0,0,1,.78-.74,4.58,4.58,0,0,1,1.24-.48,7.42,7.42,0,0,1,1.63-.17,11,11,0,0,1,2.83.4,10,10,0,0,1,1.42.51,8.31,8.31,0,0,1,1.28.72V9.57a12.52,12.52,0,0,0-2.6-.67,20.53,20.53,0,0,0-3.22-.22,14.83,14.83,0,0,0-3.52.4,8.85,8.85,0,0,0-2.92,1.24,6,6,0,0,0-2.72,5.29,6.06,6.06,0,0,0,1.34,4A10.23,10.23,0,0,0,122.34,22.36Z"/></g></g></svg>