<svg xmlns="http://www.w3.org/2000/svg" viewBox="0 0 163.51 71.04"><defs><style>.cls-1{fill:#2e76bc;}</style></defs><g id="Layer_2" data-name="Layer 2"><g id="Blue-Logo"><path class="cls-1" d="M18.46,57.91h1.48a6.83,6.83,0,0,0,2.14-.31,4.87,4.87,0,0,0,1.64-.89,4,4,0,0,0,1.05-1.36,4,4,0,0,0,.37-1.75,3.53,3.53,0,0,0-1.29-3,6.13,6.13,0,0,0-3.8-1H15.6V62.4h2.86Zm0-6.25h1.22a3,3,0,0,1,1.86.48,1.84,1.84,0,0,1,.61,1.55,2.06,2.06,0,0,1-.65,1.67,3,3,0,0,1-1.91.55H18.46Z"/><path class="cls-1" d="M29.68,60.83a6,6,0,0,0,2.07,1.33,8.07,8.07,0,0,0,5.4,0,6.26,6.26,0,0,0,2.11-1.35,6.06,6.06,0,0,0,1.37-2.12,7.7,7.7,0,0,0,.49-2.79,7.21,7.21,0,0,0-.46-2.58,6.09,6.09,0,0,0-1.3-2,6,6,0,0,0-2-1.36,7,7,0,0,0-2.66-.48,7.74,7.74,0,0,0-2.85.49,6.08,6.08,0,0,0-2.13,1.4,6,6,0,0,0-1.35,2.14,7.65,7.65,0,0,0-.47,2.72,7.09,7.09,0,0,0,.47,2.61A6.08,6.08,0,0,0,29.68,60.83Zm1.44-6.61a4,4,0,0,1,.73-1.4,3.11,3.11,0,0,1,1.16-.9,3.55,3.55,0,0,1,1.55-.32,3.73,3.73,0,0,1,1.55.3,2.93,2.93,0,0,1,1.12.88,4,4,0,0,1,.67,1.41,7.19,7.19,0,0,1,.22,1.88,6.93,6.93,0,0,1-.23,1.85,3.77,3.77,0,0,1-.7,1.37,3.08,3.08,0,0,1-1.15.87,4.12,4.12,0,0,1-1.58.29,3.53,3.53,0,0,1-1.52-.31,3.26,3.26,0,0,1-1.13-.89,4.24,4.24,0,0,1-.71-1.39A6.42,6.42,0,0,1,30.86,56,6.11,6.11,0,0,1,31.12,54.22Z"/><path class="cls-1" d="M50.16,62.4c.4-1.28.81-2.55,1.22-3.81s.81-2.54,1.21-3.81a7.26,7.26,0,0,0,.26-1c.09-.39.17-.78.25-1.17a9.14,9.14,0,0,0,.2,1.1c.09.38.18.7.27,1L56,62.4H59.1c.64-2.14,1.29-4.26,1.94-6.38s1.29-4.24,2-6.38H60l-2,7.71c-.15.52-.26.95-.34,1.31s-.12.65-.15.88h0c0-.25-.1-.54-.17-.87A10.79,10.79,0,0,0,57,57.51l-2.46-7.87H51.77l-2.54,7.82c-.15.49-.26.91-.34,1.26s-.12.62-.14.83h0a8.54,8.54,0,0,0-.16-.92q-.1-.52-.3-1.23l-2-7.76h-3L47,62.4Z"/><polygon class="cls-1" points="74.11 60.3 68.99 60.3 68.99 57.01 73.41 57.01 73.41 54.9 68.99 54.9 68.99 51.75 73.79 51.75 73.79 49.64 66.13 49.64 66.13 62.4 74.11 62.4 74.11 60.3"/><path class="cls-1" d="M80.34,57.43H81a1.93,1.93,0,0,1,.55.07,1.27,1.27,0,0,1,.47.25,2.27,2.27,0,0,1,.45.47,6.85,6.85,0,0,1,.48.74l2,3.44h3.34l-2.48-4a6.48,6.48,0,0,0-.89-1.15,2.64,2.64,0,0,0-1-.64v0a5.43,5.43,0,0,0,1.24-.49,3.84,3.84,0,0,0,1-.76A3.23,3.23,0,0,0,87,53.07a2.93,2.93,0,0,0-1.23-2.55,6.06,6.06,0,0,0-3.55-.88H77.48V62.4h2.86Zm0-5.8h1.32a3.18,3.18,0,0,1,1.72.38A1.42,1.42,0,0,1,84,53.32a1.92,1.92,0,0,1-.2.92,1.83,1.83,0,0,1-.54.66,2.71,2.71,0,0,1-.84.39,4.12,4.12,0,0,1-1.09.13h-1Z"/><path class="cls-1" d="M93.69,56.87c.58.25,1,.47,1.43.65A5.11,5.11,0,0,1,96,58a1.57,1.57,0,0,1,.46.48,1.34,1.34,0,0,1,.13.58A1.22,1.22,0,0,1,96,60.16a3.16,3.16,0,0,1-1.8.4,6.41,6.41,0,0,1-.95-.08,8.08,8.08,0,0,1-1-.24,5.64,5.64,0,0,1-.92-.39,4.65,4.65,0,0,1-.81-.51V61.9a4.11,4.11,0,0,0,.72.3c.29.08.59.16.91.22a7.86,7.86,0,0,0,1,.15,8.42,8.42,0,0,0,1,0,8.57,8.57,0,0,0,2.19-.25A4.9,4.9,0,0,0,98,61.63a3.34,3.34,0,0,0,1-1.18,3.54,3.54,0,0,0,.34-1.59,3.62,3.62,0,0,0-.21-1.26,3.22,3.22,0,0,0-.65-1.05,5.1,5.1,0,0,0-1.08-.88,11.58,11.58,0,0,0-1.54-.78c-.53-.23-1-.43-1.31-.6a5.08,5.08,0,0,1-.79-.48,1.43,1.43,0,0,1-.39-.46,1.19,1.19,0,0,1-.11-.51,1.13,1.13,0,0,1,.62-1,3.43,3.43,0,0,1,1.72-.37,6.55,6.55,0,0,1,1.65.21,5,5,0,0,1,1.46.62V49.9a5.93,5.93,0,0,0-1.34-.36,13.51,13.51,0,0,0-1.81-.11,8.28,8.28,0,0,0-2,.22,5.28,5.28,0,0,0-1.6.67,3.3,3.3,0,0,0-1.08,1.12A3,3,0,0,0,90.51,53a3.4,3.4,0,0,0,.77,2.23A6.47,6.47,0,0,0,93.69,56.87Z"/><polygon class="cls-1" points="106.15 56.9 111.91 56.9 111.91 62.4 114.77 62.4 114.77 49.64 111.91 49.64 111.91 54.72 106.15 54.72 106.15 49.64 103.29 49.64 103.29 62.4 106.15 62.4 106.15 56.9"/><polygon class="cls-1" points="127.17 60.3 122.06 60.3 122.06 57.01 126.47 57.01 126.47 54.9 122.06 54.9 122.06 51.75 126.85 51.75 126.85 49.64 119.2 49.64 119.2 62.4 127.17 62.4 127.17 60.3"/><polygon class="cls-1" points="138.53 60.24 133.4 60.24 133.4 49.64 130.54 49.64 130.54 62.4 138.53 62.4 138.53 60.24"/><polygon class="cls-1" points="149.43 60.24 144.3 60.24 144.3 49.64 141.44 49.64 141.44 62.4 149.43 62.4 149.43 60.24"/><path class="cls-1" d="M163.51,40.66V.13H70L0,0V71H163.51V40.66ZM161.23,2.4V40.48H70V2.4ZM46.88,10.24h7.85q8.42,0,8.41,7.06a6.77,6.77,0,0,1-2.41,5.4,9.57,9.57,0,0,1-6.45,2.06H51.89V32.4h-5ZM27.17,16.57h4.91v2.51h.06a5.62,5.62,0,0,1,5.1-2.89q5.28,0,5.28,6.52V32.4H37.63V23.6q0-3.68-2.64-3.67a2.62,2.62,0,0,0-2.09,1,3.68,3.68,0,0,0-.82,2.47v9H27.17Zm-19-6.33H16q8.4,0,8.41,7.06A6.75,6.75,0,0,1,22,22.7a9.54,9.54,0,0,1-6.44,2.06H13.15V32.4h-5ZM161.23,68.76H2.28V42.94h159Z"/><path class="cls-1" d="M57.86,17.49q0-3.42-4-3.42h-2V21h2C56.53,21,57.86,19.81,57.86,17.49Z"/><path class="cls-1" d="M19.12,17.49q0-3.42-4-3.42h-2V21h2C17.79,21,19.12,19.81,19.12,17.49Z"/><path class="cls-1" d="M102.27,32.47v-8h2.51a10.06,10.06,0,0,0,6.78-2.18,7.15,7.15,0,0,0,2.54-5.7q0-7.45-8.84-7.45H97V32.47Zm0-19.34h2.07c2.81,0,4.21,1.21,4.21,3.61s-1.4,3.68-4.21,3.68h-2.07Z"/><path class="cls-1" d="M125.12,22.41c.71.3,1.38.58,2,.87a10.39,10.39,0,0,1,1.61.88,4.11,4.11,0,0,1,1.07,1,2,2,0,0,1,.39,1.23,1.8,1.8,0,0,1-.25.93,2.12,2.12,0,0,1-.74.75,4.06,4.06,0,0,1-1.24.5,7.39,7.39,0,0,1-1.74.18,9.75,9.75,0,0,1-3.35-.6,10,10,0,0,1-3.09-1.78v5.22a11.32,11.32,0,0,0,3,1,20.52,20.52,0,0,0,3.66.32,17.15,17.15,0,0,0,3.57-.36,8.79,8.79,0,0,0,3-1.18,6.09,6.09,0,0,0,2-2.15,6.73,6.73,0,0,0,.74-3.29,6.75,6.75,0,0,0-.42-2.48,5.68,5.68,0,0,0-1.22-1.9,9.12,9.12,0,0,0-1.92-1.5,21.14,21.14,0,0,0-2.52-1.24c-.69-.29-1.3-.56-1.84-.83a9.13,9.13,0,0,1-1.39-.81,3.66,3.66,0,0,1-.88-.88,1.83,1.83,0,0,1-.31-1.06,1.74,1.74,0,0,1,.28-1,2.42,2.42,0,0,1,.78-.74,4.58,4.58,0,0,1,1.24-.48,7.42,7.42,0,0,1,1.63-.17,11,11,0,0,1,2.84.4,11.4,11.4,0,0,1,1.42.51,7.87,7.87,0,0,1,1.28.72V9.6a12.52,12.52,0,0,0-2.6-.68,20.75,20.75,0,0,0-3.23-.22,14.92,14.92,0,0,0-3.53.4,8.75,8.75,0,0,0-2.92,1.25,6.09,6.09,0,0,0-2,2.16,6.31,6.31,0,0,0-.73,3.14,6,6,0,0,0,1.34,4A10.23,10.23,0,0,0,125.12,22.41Z"/></g></g></svg>