<svg xmlns="http://www.w3.org/2000/svg" width="163.09" height="70.56" viewBox="0 0 163.09 70.56"><g id="Layer_2" data-name="Layer 2"><g id="Blue-Logo"><path d="M24.11,50.74a7,7,0,0,0-2,5.16,6.55,6.55,0,0,0,1.75,4.79,6.4,6.4,0,0,0,4.8,1.79,8.72,8.72,0,0,0,3.79-.7V59.05a6.21,6.21,0,0,1-3.2.85,3.82,3.82,0,0,1-2.91-1.14,4.27,4.27,0,0,1-1.09-3.07,4.37,4.37,0,0,1,1.15-3.18,4,4,0,0,1,3-1.18,5.82,5.82,0,0,1,3,.8V49.25a9.73,9.73,0,0,0-3.28-.49A6.87,6.87,0,0,0,24.11,50.74Z" style="fill:#2e76bc"/><path d="M40.39,48.76a6.34,6.34,0,0,0-4.83,1.94,7.18,7.18,0,0,0-1.82,5.09,6.62,6.62,0,0,0,1.8,4.83,6.15,6.15,0,0,0,4.64,1.86,6.22,6.22,0,0,0,4.74-1.92,7,7,0,0,0,1.82-5A6.86,6.86,0,0,0,45,50.62,6,6,0,0,0,40.39,48.76Zm2.3,10a3,3,0,0,1-2.46,1.12,3,3,0,0,1-2.42-1.15,4.79,4.79,0,0,1-.92-3.12,4.91,4.91,0,0,1,.92-3.12,3,3,0,0,1,2.5-1.18,2.86,2.86,0,0,1,2.4,1.15,5.17,5.17,0,0,1,.88,3.21A4.78,4.78,0,0,1,42.69,58.78Z" style="fill:#2e76bc"/><path d="M58.05,56.32a14.24,14.24,0,0,0,.07,1.82h0q-.3-.54-.66-1.08L52.16,49H48.94V62.25h2.82V55c0-1,0-1.68-.08-2.15h0a12.6,12.6,0,0,0,.67,1.1l5.46,8.34h3V49H58.05Z" style="fill:#2e76bc"/><polygon points="63.9 62.25 66.89 62.25 66.89 57.1 71.19 57.1 71.19 54.67 66.89 54.67 66.89 51.42 71.57 51.42 71.57 48.98 63.9 48.98 63.9 62.25" style="fill:#2e76bc"/><polygon points="81.71 59.83 76.74 59.83 76.74 56.79 81.08 56.79 81.08 54.37 76.74 54.37 76.74 51.42 81.4 51.42 81.4 48.98 73.75 48.98 73.75 62.25 81.71 62.25 81.71 59.83" style="fill:#2e76bc"/><path d="M86.82,57.17h.81a1.13,1.13,0,0,1,.51.12,1.37,1.37,0,0,1,.45.33,3.31,3.31,0,0,1,.43.52,7.11,7.11,0,0,1,.45.7l2.06,3.41H95l-2.5-3.92c-.13-.21-.28-.42-.43-.63a7.38,7.38,0,0,0-.5-.59,3.52,3.52,0,0,0-.54-.49,1.74,1.74,0,0,0-.57-.3v0a5.25,5.25,0,0,0,1.23-.53,3.91,3.91,0,0,0,.94-.82,3.68,3.68,0,0,0,.6-1.06,3.78,3.78,0,0,0,.21-1.28c0-2.4-1.61-3.61-4.83-3.61H83.84V62.25h3Zm0-6h1.35c1.39,0,2.08.58,2.08,1.74a1.84,1.84,0,0,1-.59,1.4,2.12,2.12,0,0,1-1.54.55h-1.3Z" style="fill:#2e76bc"/><polygon points="104.16 59.83 99.19 59.83 99.19 56.79 103.53 56.79 103.53 54.37 99.19 54.37 99.19 51.42 103.85 51.42 103.85 48.98 96.2 48.98 96.2 62.25 104.16 62.25 104.16 59.83" style="fill:#2e76bc"/><path d="M109.1,55c0-1,0-1.68-.07-2.15h0a10,10,0,0,0,.66,1.1l5.47,8.34h3V49h-2.83v7.34a13.64,13.64,0,0,0,.08,1.82h0a12.68,12.68,0,0,0-.67-1.08L109.5,49h-3.22V62.25h2.82Z" style="fill:#2e76bc"/><path d="M127,62.48a8.76,8.76,0,0,0,3.79-.7V59.05a6.21,6.21,0,0,1-3.2.85,3.86,3.86,0,0,1-2.92-1.14,4.94,4.94,0,0,1,.07-6.25,4,4,0,0,1,3-1.18,5.82,5.82,0,0,1,3,.8V49.25a9.73,9.73,0,0,0-3.28-.49,6.87,6.87,0,0,0-5.1,2,7,7,0,0,0-2,5.16,6.55,6.55,0,0,0,1.75,4.79A6.4,6.4,0,0,0,127,62.48Z" style="fill:#2e76bc"/><polygon points="141.02 59.83 136.06 59.83 136.06 56.79 140.4 56.79 140.4 54.37 136.06 54.37 136.06 51.42 140.72 51.42 140.72 48.98 133.07 48.98 133.07 62.25 141.02 62.25 141.02 59.83" style="fill:#2e76bc"/><path d="M57.72,17.44q0-3.41-4-3.4h-2v6.88h2Q57.73,20.92,57.72,17.44Z" style="fill:#2e76bc"/><path d="M19.07,17.44q0-3.41-4-3.4h-2v6.88h2Q19.07,20.92,19.07,17.44Z" style="fill:#2e76bc"/><path d="M69.87.13h0L0,0V70.56H163.09V.13ZM46.76,10.21h7.83q8.38,0,8.39,7.05a6.72,6.72,0,0,1-2.41,5.38,9.51,9.51,0,0,1-6.43,2.06H51.76v7.61h-5ZM27.1,16.53H32V19h.06a5.6,5.6,0,0,1,5.09-2.88q5.26,0,5.26,6.5v9.66H37.54V23.55q0-3.68-2.63-3.67a2.59,2.59,0,0,0-2.09,1A3.67,3.67,0,0,0,32,23.31v9H27.1Zm-19-6.32H16q8.39,0,8.38,7.05a6.74,6.74,0,0,1-2.4,5.38A9.53,9.53,0,0,1,15.5,24.7H13.11v7.61h-5Zm152.7,58.08H2.27V42.53l65.29.11h93.26Zm-90.95-28V2.4h90.95V40.25Z" style="fill:#2e76bc"/><path d="M83.69,24a7.94,7.94,0,0,0-.29,1.36h-.05A6.45,6.45,0,0,0,83.08,24L80.31,14.8H77.09l4.52,13.26H85L89.56,14.8H86.44Z" style="fill:#2e76bc"/><rect x="91.15" y="14.8" width="2.99" height="13.26" style="fill:#2e76bc"/><path d="M105.35,23.51a7.38,7.38,0,0,0-.5-.59,4,4,0,0,0-.53-.49,1.89,1.89,0,0,0-.58-.3v0a4.86,4.86,0,0,0,1.23-.53,3.91,3.91,0,0,0,.94-.82,3.35,3.35,0,0,0,.6-1.06,3.74,3.74,0,0,0,.21-1.28q0-3.6-4.83-3.6H97.16V28.06h3V23H101a1.13,1.13,0,0,1,.51.12,1.53,1.53,0,0,1,.45.33,3.84,3.84,0,0,1,.43.52c.15.21.29.44.45.7l2.06,3.41h3.43l-2.5-3.92C105.65,23.93,105.5,23.73,105.35,23.51ZM103,20.17a2.14,2.14,0,0,1-1.54.56h-1.3V17h1.35c1.39,0,2.09.58,2.09,1.74A1.85,1.85,0,0,1,103,20.17Z" style="fill:#2e76bc"/><polygon points="107.91 17.23 111.68 17.23 111.68 28.06 114.67 28.06 114.67 17.23 118.46 17.23 118.46 14.8 107.91 14.8 107.91 17.23" style="fill:#2e76bc"/><path d="M128.07,22.6c0,2.07-.83,3.11-2.47,3.11s-2.52-1.07-2.52-3.22V14.8h-3v7.65c0,3.9,1.8,5.84,5.4,5.84s5.56-2,5.56-6V14.8h-3Z" style="fill:#2e76bc"/><path d="M137,14.8l-4.83,13.26h3.24l.93-2.95H141l.94,2.95h3.26L140.49,14.8Zm0,8,1.44-4.49a5.18,5.18,0,0,0,.23-1.16h.08a5.37,5.37,0,0,0,.22,1.2l1.42,4.45Z" style="fill:#2e76bc"/><polygon points="149.85 25.64 149.85 14.8 146.86 14.8 146.86 28.06 154.76 28.06 154.76 25.64 149.85 25.64" style="fill:#2e76bc"/></g></g></svg>