<svg xmlns="http://www.w3.org/2000/svg" viewBox="0 0 163.18 70.9"><defs><style>.cls-1{fill:#2e76bc;}</style></defs><g id="Layer_2" data-name="Layer 2"><g id="Blue-Logo"><path class="cls-1" d="M147.89,55.63c0-.41,0-.76,0-1.06s0-.53,0-.69h0c.06.12.15.28.28.49s.28.44.47.69l5.23,7.21h2.6V50.73h-2.4v6.53c0,.4,0,.74,0,1s0,.5.06.65h0c-.08-.12-.16-.26-.27-.42s-.25-.38-.44-.65l-5.13-7.13H145.5V62.27h2.39Z"/><polygon class="cls-1" points="117.46 62.27 120.05 62.27 120.05 52.7 123.57 52.7 123.57 50.73 113.93 50.73 113.93 52.7 117.46 52.7 117.46 62.27"/><path class="cls-1" d="M132.52,60.86a5.44,5.44,0,0,0,1.88,1.19,6.51,6.51,0,0,0,2.42.43,6.9,6.9,0,0,0,2.46-.43,5.73,5.73,0,0,0,1.91-1.22,5.63,5.63,0,0,0,1.24-1.92,6.94,6.94,0,0,0,.44-2.52,6.31,6.31,0,0,0-.42-2.33,5.24,5.24,0,0,0-3-3.08,6.33,6.33,0,0,0-2.4-.44,7,7,0,0,0-2.58.45,5.39,5.39,0,0,0-3.15,3.19,7,7,0,0,0-.42,2.47,6.23,6.23,0,0,0,.43,2.36A5.28,5.28,0,0,0,132.52,60.86Zm1.3-6a3.91,3.91,0,0,1,.66-1.27,3.12,3.12,0,0,1,1.05-.82,3.61,3.61,0,0,1,2.81,0,2.62,2.62,0,0,1,1,.79,3.66,3.66,0,0,1,.61,1.27,6.86,6.86,0,0,1,.2,1.71,6.1,6.1,0,0,1-.21,1.67,3.6,3.6,0,0,1-.64,1.25,2.58,2.58,0,0,1-1,.77,3.54,3.54,0,0,1-1.43.27,3.15,3.15,0,0,1-1.36-.28,2.82,2.82,0,0,1-1-.81,3.6,3.6,0,0,1-.64-1.25,6,6,0,0,1-.22-1.65A5.6,5.6,0,0,1,133.82,54.88Z"/><rect class="cls-1" x="125.67" y="50.73" width="2.59" height="11.54"/><path class="cls-1" d="M24.73,60.86a5.3,5.3,0,0,0,1.87,1.19,6.53,6.53,0,0,0,2.43.43,6.89,6.89,0,0,0,2.45-.43,5.64,5.64,0,0,0,1.91-1.22,5.48,5.48,0,0,0,1.24-1.92,6.94,6.94,0,0,0,.44-2.52,6.52,6.52,0,0,0-.41-2.33,5.52,5.52,0,0,0-1.18-1.86A5.34,5.34,0,0,0,31.64,51a6.3,6.3,0,0,0-2.4-.44,7,7,0,0,0-2.58.45,5.57,5.57,0,0,0-1.93,1.26,5.67,5.67,0,0,0-1.22,1.93,7,7,0,0,0-.42,2.47A6.23,6.23,0,0,0,23.52,59,5.31,5.31,0,0,0,24.73,60.86Zm1.29-6a3.75,3.75,0,0,1,.67-1.27,2.93,2.93,0,0,1,1-.82,3.3,3.3,0,0,1,1.4-.29,3.39,3.39,0,0,1,1.4.28,2.62,2.62,0,0,1,1,.79,3.66,3.66,0,0,1,.61,1.27,6.42,6.42,0,0,1,.2,1.71,6.1,6.1,0,0,1-.21,1.67,3.59,3.59,0,0,1-.63,1.25,2.61,2.61,0,0,1-1.05.77,3.53,3.53,0,0,1-1.42.27,3.17,3.17,0,0,1-1.37-.28,2.82,2.82,0,0,1-1-.81A3.6,3.6,0,0,1,26,58.17a6,6,0,0,1-.22-1.65A5.6,5.6,0,0,1,26,54.88Z"/><path class="cls-1" d="M44.31,61.85a6.07,6.07,0,0,0,2.17-1.19,5.29,5.29,0,0,0,1.4-1.87,6,6,0,0,0,.49-2.43q0-5.62-6.81-5.63H37.7V62.27h3.79A8.89,8.89,0,0,0,44.31,61.85Zm-4-9.17h1.26a4.53,4.53,0,0,1,3.05.91,3.51,3.51,0,0,1,1.06,2.8,4.79,4.79,0,0,1-.28,1.71,3.34,3.34,0,0,1-.83,1.24,3.52,3.52,0,0,1-1.31.75,5.48,5.48,0,0,1-1.73.25H40.29Z"/><path class="cls-1" d="M9.06,55.42c0-.23,0-.45,0-.64s0-.38,0-.56l0-.53c0-.17,0-.36,0-.56H9c.08.35.15.65.22.88a4.15,4.15,0,0,0,.24.63l3.08,7.63h1.91l3-7.61c.08-.21.16-.45.23-.7s.15-.53.22-.83H18c0,.45-.07.86-.08,1.24s0,.73,0,1.08v6.82h2.53V50.73H16.84l-2.68,6.66c-.1.23-.2.5-.3.8s-.19.59-.27.85h-.07a6.46,6.46,0,0,0-.19-.76c-.09-.29-.2-.58-.32-.87L10.3,50.73H6.73V62.27H9.06Z"/><polygon class="cls-1" points="58.21 60.37 53.59 60.37 53.59 57.4 57.58 57.4 57.58 55.49 53.59 55.49 53.59 52.64 57.92 52.64 57.92 50.73 51 50.73 51 62.27 58.21 62.27 58.21 60.37"/><polygon class="cls-1" points="101.75 60.32 95.45 60.32 101.84 51.83 101.84 50.73 92.37 50.73 92.37 52.7 98.23 52.7 91.83 61.12 91.83 62.27 101.75 62.27 101.75 60.32"/><rect class="cls-1" x="86.98" y="50.73" width="2.59" height="11.54"/><path class="cls-1" d="M106.14,59.59h4.35l1,2.68h2.79L109.8,50.73h-2.89l-4.48,11.54h2.79Zm1.84-5.5c.07-.22.13-.44.19-.65a5.46,5.46,0,0,0,.11-.56h0a4,4,0,0,0,.11.59c.06.21.12.42.18.6l1.28,3.66h-3.13Z"/><path class="cls-1" d="M63.41,57.78H64a1.88,1.88,0,0,1,.49.06,1.26,1.26,0,0,1,.43.22,2.84,2.84,0,0,1,.41.43,6.05,6.05,0,0,1,.43.67l1.78,3.11h3l-2.25-3.61a6,6,0,0,0-.81-1,2.64,2.64,0,0,0-.88-.58v0a4.84,4.84,0,0,0,1.12-.44,3.31,3.31,0,0,0,.87-.69,2.79,2.79,0,0,0,.57-.91,2.94,2.94,0,0,0,.21-1.12,2.65,2.65,0,0,0-1.12-2.31,5.47,5.47,0,0,0-3.21-.8H60.82V62.27h2.59Zm0-5.24H64.6a3,3,0,0,1,1.56.33,1.32,1.32,0,0,1,.52,1.19,2,2,0,0,1-.17.84,1.77,1.77,0,0,1-.5.59,2.13,2.13,0,0,1-.76.35,3.76,3.76,0,0,1-1,.12h-.86Z"/><path class="cls-1" d="M74.86,55.63c0-.41,0-.76,0-1.06s0-.53,0-.69h0c.06.12.15.28.28.49s.29.44.47.69l5.23,7.21h2.6V50.73H81v6.53q0,.6,0,1c0,.29,0,.5,0,.65h0q-.1-.18-.27-.42c-.1-.17-.25-.38-.44-.65l-5.13-7.13H72.47V62.27h2.39Z"/><path class="cls-1" d="M57.75,17.45c0-2.27-1.34-3.41-4-3.41h-2v6.9h2C56.41,20.94,57.75,19.77,57.75,17.45Z"/><path class="cls-1" d="M19.08,17.45q0-3.4-4-3.41h-2v6.9h2C17.75,20.94,19.08,19.77,19.08,17.45Z"/><path class="cls-1" d="M69.9.13h0L0,0V70.9H163.18V.13Zm91,2.27v38h-91V2.4ZM46.78,10.22h7.84q8.39,0,8.39,7a6.72,6.72,0,0,1-2.41,5.38,9.51,9.51,0,0,1-6.43,2.06H51.78v7.62h-5ZM27.12,16.54H32V19h.06a5.63,5.63,0,0,1,5.1-2.88c3.51,0,5.26,2.16,5.26,6.5v9.67H37.56V23.56q0-3.68-2.64-3.67a2.62,2.62,0,0,0-2.09,1A3.68,3.68,0,0,0,32,23.33v9H27.12Zm-19-6.32H16q8.4,0,8.4,7a6.75,6.75,0,0,1-2.41,5.38,9.53,9.53,0,0,1-6.43,2.06H13.12v7.62h-5ZM160.9,68.62H2.27V42.85H160.9Z"/><polygon class="cls-1" points="151.89 28.89 145.44 28.89 145.44 25.38 150.96 25.38 150.96 21.85 145.44 21.85 145.44 18.45 151.45 18.45 151.45 14.91 140.27 14.91 140.27 32.41 151.89 32.41 151.89 28.89"/><path class="cls-1" d="M126.65,25.87h.18a1.71,1.71,0,0,1,.65.12,1.84,1.84,0,0,1,.58.4,3.85,3.85,0,0,1,.61.75c.2.31.44.7.7,1.15l2.32,4.12h6l-3.22-5.1a10.51,10.51,0,0,0-1.43-1.83,4.34,4.34,0,0,0-1.71-1v0a7.79,7.79,0,0,0,1.64-.7,5.31,5.31,0,0,0,1.29-1,4.68,4.68,0,0,0,.83-1.35,4.27,4.27,0,0,0,.31-1.66q0-4.76-7.05-4.76h-6.92v17.5h5.18Zm0-7.69h.93a3.25,3.25,0,0,1,1.84.42,1.74,1.74,0,0,1,.61,1.55,2.3,2.3,0,0,1-.69,1.76,2.53,2.53,0,0,1-1.83.65h-.86Z"/><path class="cls-1" d="M101.68,30.26a8.15,8.15,0,0,0,2.91,1.81,10.56,10.56,0,0,0,3.78.65,10.82,10.82,0,0,0,3.86-.67,8.68,8.68,0,0,0,3-1.87,8.28,8.28,0,0,0,1.91-2.9,10,10,0,0,0,.67-3.74,9.92,9.92,0,0,0-.65-3.65,8.12,8.12,0,0,0-1.86-2.81,8.33,8.33,0,0,0-2.87-1.82,10.54,10.54,0,0,0-3.73-.64,11,11,0,0,0-4,.68,8.76,8.76,0,0,0-3,1.89,8.38,8.38,0,0,0-1.92,2.93,10.21,10.21,0,0,0-.67,3.78,9.19,9.19,0,0,0,.67,3.57A8,8,0,0,0,101.68,30.26Zm3.14-8.76a5.32,5.32,0,0,1,.78-1.7,3.56,3.56,0,0,1,1.26-1.09,3.77,3.77,0,0,1,1.71-.38,3.21,3.21,0,0,1,2.83,1.44,7,7,0,0,1,1,4,8.65,8.65,0,0,1-.26,2.19,4.91,4.91,0,0,1-.75,1.65,3.34,3.34,0,0,1-1.24,1,3.77,3.77,0,0,1-1.68.36,3.43,3.43,0,0,1-2.85-1.42,5,5,0,0,1-.78-1.68,8.34,8.34,0,0,1-.27-2.2A8.21,8.21,0,0,1,104.82,21.5Z"/><path class="cls-1" d="M81.86,29.66a11.28,11.28,0,0,0,8.45,3.16A15.45,15.45,0,0,0,97,31.58v-4.8a10.9,10.9,0,0,1-5.63,1.49,6.7,6.7,0,0,1-5.13-2,7.48,7.48,0,0,1-1.9-5.39,7.67,7.67,0,0,1,2-5.6,7.05,7.05,0,0,1,5.3-2.06A10.22,10.22,0,0,1,97,14.6V9.54a16.89,16.89,0,0,0-5.76-.86,12.12,12.12,0,0,0-9,3.48,12.36,12.36,0,0,0-3.45,9.08A11.55,11.55,0,0,0,81.86,29.66Z"/></g></g></svg>