<svg xmlns="http://www.w3.org/2000/svg" viewBox="0 0 163.57 70.79"><defs><style>.cls-1{fill:#2e76bc;}</style></defs><g id="Layer_2" data-name="Layer 2"><g id="Blue-Logo"><path class="cls-1" d="M80.6,20.17a10.19,10.19,0,0,0,4.05,2.75c.71.29,1.37.57,2,.85a11.59,11.59,0,0,1,1.59.87,4.16,4.16,0,0,1,1,1,2,2,0,0,1,.39,1.21,1.83,1.83,0,0,1-.24.92,2.18,2.18,0,0,1-.74.74,3.93,3.93,0,0,1-1.22.49,7.33,7.33,0,0,1-1.72.18,10,10,0,0,1-6.38-2.35V32a11.1,11.1,0,0,0,3,1,19.12,19.12,0,0,0,3.62.32,17.39,17.39,0,0,0,3.53-.35,8.74,8.74,0,0,0,2.93-1.17,6,6,0,0,0,2-2.12,6.52,6.52,0,0,0,.73-3.24,6.58,6.58,0,0,0-.42-2.45A5.67,5.67,0,0,0,93.53,22a9.3,9.3,0,0,0-1.9-1.47,21.41,21.41,0,0,0-2.49-1.23q-1-.42-1.83-.81a9.94,9.94,0,0,1-1.37-.8,3.58,3.58,0,0,1-.87-.87,1.79,1.79,0,0,1-.31-1,1.71,1.71,0,0,1,.28-1,2.35,2.35,0,0,1,.77-.73A4.21,4.21,0,0,1,87,13.65a6.69,6.69,0,0,1,1.61-.17,11.1,11.1,0,0,1,1.37.09,12.29,12.29,0,0,1,1.44.3,10,10,0,0,1,1.42.51,7.82,7.82,0,0,1,1.27.71V10.28a12.49,12.49,0,0,0-2.58-.67,21.67,21.67,0,0,0-3.21-.22,14.64,14.64,0,0,0-3.49.4A8.77,8.77,0,0,0,82,11a6,6,0,0,0-2,2.13,6.14,6.14,0,0,0-.73,3.09A6,6,0,0,0,80.6,20.17Z"/><path class="cls-1" d="M104.19,24.9h2.49a10,10,0,0,0,6.71-2.15,7.06,7.06,0,0,0,2.51-5.62q0-7.35-8.75-7.35H99V32.84h5.22Zm0-11.13h2q4.17,0,4.17,3.55c0,2.42-1.39,3.64-4.17,3.64h-2Z"/><polygon class="cls-1" points="124.51 23.88 132.02 23.88 132.02 19.67 124.51 19.67 124.51 14.01 132.68 14.01 132.68 9.78 119.29 9.78 119.29 32.84 124.51 32.84 124.51 23.88"/><path class="cls-1" d="M139.83,32.84l2.41-4.49a9.94,9.94,0,0,0,.66-1.44H143c.27.64.5,1.14.69,1.49l2.39,4.44h5.88l-5.43-8.49,5.46-8h-5.55L144,21a10.46,10.46,0,0,0-.69,1.57h-.07a10.22,10.22,0,0,0-.66-1.54l-2.36-4.62h-5.91l5.25,8.27L134,32.84Z"/><path class="cls-1" d="M57.9,17.49q0-3.42-4-3.42h-2V21h2C56.57,21,57.9,19.81,57.9,17.49Z"/><path class="cls-1" d="M19.16,17.49c0-2.28-1.34-3.42-4-3.42h-2V21h2C17.82,21,19.16,19.81,19.16,17.49Z"/><path class="cls-1" d="M163.57.13H70.08L0,0V40.41H0V70.79H163.51v-28h.06ZM161.29,2.4v38H70.08V2.4ZM46.92,10.24h7.85q8.4,0,8.41,7.06a6.75,6.75,0,0,1-2.42,5.4,9.52,9.52,0,0,1-6.44,2.06H51.93V32.4h-5ZM27.21,16.57h4.9v2.51h.07a5.6,5.6,0,0,1,5.1-2.89q5.28,0,5.28,6.52V32.4H37.67V23.6q0-3.68-2.64-3.67a2.59,2.59,0,0,0-2.09,1,3.69,3.69,0,0,0-.83,2.47v9h-4.9Zm-19-6.33H16q8.41,0,8.41,7.06A6.74,6.74,0,0,1,22,22.7a9.57,9.57,0,0,1-6.45,2.06H13.19V32.4h-5ZM161.23,68.51H2.28V42.69H30.19l37.61.06h93.43Z"/><path class="cls-1" d="M31,57.16h2.65v2.67a3.6,3.6,0,0,1-.91.3,5.82,5.82,0,0,1-1.1.1,4.52,4.52,0,0,1-1.73-.31,3.54,3.54,0,0,1-1.3-.87,4,4,0,0,1-.82-1.38,5.27,5.27,0,0,1-.29-1.84A4.59,4.59,0,0,1,27.84,54a4.21,4.21,0,0,1,1-1.43,4.4,4.4,0,0,1,1.48-.92,5.1,5.1,0,0,1,1.9-.34,7.48,7.48,0,0,1,3.82.93V49.79a9.47,9.47,0,0,0-1.8-.46,13.82,13.82,0,0,0-2.12-.15,8.93,8.93,0,0,0-3.08.5,7.27,7.27,0,0,0-2.41,1.41,6.17,6.17,0,0,0-1.55,2.15A6.63,6.63,0,0,0,24.5,56,6.79,6.79,0,0,0,25,58.61a5.75,5.75,0,0,0,1.43,2,6.57,6.57,0,0,0,2.22,1.28,8.89,8.89,0,0,0,2.91.45,11.24,11.24,0,0,0,2.66-.29,9.9,9.9,0,0,0,2.27-.83V55.08H31Z"/><polygon class="cls-1" points="42.8 56.76 47.21 56.76 47.21 54.65 42.8 54.65 42.8 51.5 47.59 51.5 47.59 49.39 39.94 49.39 39.94 62.15 47.91 62.15 47.91 60.05 42.8 60.05 42.8 56.76"/><path class="cls-1" d="M60.26,56.61c0,.44,0,.82,0,1.13s0,.55.06.72h0c-.08-.14-.18-.29-.3-.48s-.27-.42-.49-.71l-5.67-7.88H50.8V62.15h2.65V54.8c0-.45,0-.84,0-1.17a6,6,0,0,0-.06-.76h.05c.07.13.17.31.31.54s.32.49.52.76l5.78,8h2.88V49.39H60.26Z"/><polygon class="cls-1" points="66.85 62.15 74.82 62.15 74.82 60.05 69.71 60.05 69.71 56.76 74.12 56.76 74.12 54.65 69.71 54.65 69.71 51.5 74.5 51.5 74.5 49.39 66.85 49.39 66.85 62.15"/><path class="cls-1" d="M80.57,57.18h.64a1.81,1.81,0,0,1,.54.07,1.23,1.23,0,0,1,.48.25,2.27,2.27,0,0,1,.45.47,5.65,5.65,0,0,1,.47.74l2,3.44h3.35l-2.48-4a6.06,6.06,0,0,0-.9-1.15,2.73,2.73,0,0,0-1-.64v0a5.43,5.43,0,0,0,1.24-.49,3.79,3.79,0,0,0,1-.76,3.29,3.29,0,0,0,.86-2.25,2.91,2.91,0,0,0-1.24-2.55,6,6,0,0,0-3.55-.88H77.71V62.15h2.86Zm0-5.8h1.31a3.19,3.19,0,0,1,1.73.38,1.45,1.45,0,0,1,.58,1.31A2,2,0,0,1,84,54a1.76,1.76,0,0,1-.55.66,2.51,2.51,0,0,1-.84.39,4.1,4.1,0,0,1-1.08.13h-1Z"/><path class="cls-1" d="M92.77,59.18h4.8l1.07,3h3.09L96.82,49.39H93.61l-5,12.76h3.09Zm2-6.08c.08-.24.15-.48.21-.71s.1-.44.12-.63h.06a2.91,2.91,0,0,0,.12.65c.06.24.13.47.2.67l1.41,4.05H93.46Z"/><polygon class="cls-1" points="105.28 62.15 108.14 62.15 108.14 51.56 112.03 51.56 112.03 49.39 101.37 49.39 101.37 51.56 105.28 51.56 105.28 62.15"/><path class="cls-1" d="M114.7,60.58a6,6,0,0,0,2.07,1.33,8,8,0,0,0,5.39,0,6.16,6.16,0,0,0,2.11-1.35,6.08,6.08,0,0,0,1.38-2.12,7.7,7.7,0,0,0,.48-2.79,7,7,0,0,0-.46-2.58,5.79,5.79,0,0,0-1.3-2,6,6,0,0,0-2-1.36,7.08,7.08,0,0,0-2.66-.48,7.74,7.74,0,0,0-2.85.49,6.21,6.21,0,0,0-2.14,1.4,6.29,6.29,0,0,0-1.35,2.14,7.65,7.65,0,0,0-.46,2.72,6.89,6.89,0,0,0,.47,2.61A5.94,5.94,0,0,0,114.7,60.58ZM116.13,54a4.33,4.33,0,0,1,.73-1.4,3.23,3.23,0,0,1,1.17-.9,3.64,3.64,0,0,1,1.55-.32,3.76,3.76,0,0,1,1.55.3,2.83,2.83,0,0,1,1.11.88,3.85,3.85,0,0,1,.67,1.41,6.77,6.77,0,0,1,.23,1.88,6.53,6.53,0,0,1-.24,1.85,3.77,3.77,0,0,1-.7,1.37,3,3,0,0,1-1.15.87,4.08,4.08,0,0,1-1.58.29,3.52,3.52,0,0,1-1.51-.31,3.09,3.09,0,0,1-1.13-.89,4.06,4.06,0,0,1-.71-1.39,6.42,6.42,0,0,1-.24-1.82A6.11,6.11,0,0,1,116.13,54Z"/><path class="cls-1" d="M131.9,57.18h.64a1.93,1.93,0,0,1,.55.07,1.27,1.27,0,0,1,.47.25A2.27,2.27,0,0,1,134,58a6.85,6.85,0,0,1,.48.74l2,3.44h3.34l-2.48-4a6.48,6.48,0,0,0-.89-1.15,2.86,2.86,0,0,0-1-.64v0a5.43,5.43,0,0,0,1.24-.49,3.67,3.67,0,0,0,1-.76,3.28,3.28,0,0,0,.62-1,3.15,3.15,0,0,0,.23-1.24,2.93,2.93,0,0,0-1.23-2.55,6.06,6.06,0,0,0-3.55-.88H129V62.15h2.86Zm0-5.8h1.32a3.15,3.15,0,0,1,1.72.38,1.42,1.42,0,0,1,.58,1.31,2,2,0,0,1-.2.92,1.83,1.83,0,0,1-.54.66,2.71,2.71,0,0,1-.84.39,4.18,4.18,0,0,1-1.09.13h-.95Z"/></g></g></svg>