<svg xmlns="http://www.w3.org/2000/svg" viewBox="0 0 163.51 71.04"><defs><style>.cls-1{fill:#2e76bc;}</style></defs><g id="Layer_2" data-name="Layer 2"><g id="Blue-Logo"><polygon class="cls-1" points="48.3 60.24 43.18 60.24 43.18 49.64 40.32 49.64 40.32 62.4 48.3 62.4 48.3 60.24"/><rect class="cls-1" x="52.18" y="49.64" width="2.86" height="12.76"/><path class="cls-1" d="M66.83,62.14a4.72,4.72,0,0,0,1.54-.76,3.43,3.43,0,0,0,1-1.18,3.26,3.26,0,0,0,.35-1.54,3,3,0,0,0-.2-1.12,2.66,2.66,0,0,0-.62-.93,3.18,3.18,0,0,0-1-.67,4.5,4.5,0,0,0-1.39-.35v0a3.79,3.79,0,0,0,1.93-1.12,2.72,2.72,0,0,0,.67-1.84A2.51,2.51,0,0,0,68,50.42a5.78,5.78,0,0,0-3.31-.78H60V62.4h4.89A7.24,7.24,0,0,0,66.83,62.14Zm-4-10.53h1.12a3.56,3.56,0,0,1,1.64.29A1.15,1.15,0,0,1,66.11,53a1.62,1.62,0,0,1-.57,1.36,2.49,2.49,0,0,1-1.63.46H62.82Zm0,8.82V56.81h1.36a3.44,3.44,0,0,1,1.93.44,1.57,1.57,0,0,1,.64,1.39A1.52,1.52,0,0,1,66.13,60a3.16,3.16,0,0,1-1.78.42Z"/><path class="cls-1" d="M76.39,57.42H77a1.85,1.85,0,0,1,.54.08,1.23,1.23,0,0,1,.48.25,2.27,2.27,0,0,1,.45.47A5.65,5.65,0,0,1,79,59l2,3.44H84.3l-2.48-4a6.06,6.06,0,0,0-.9-1.15,2.68,2.68,0,0,0-1-.64v0a5.26,5.26,0,0,0,1.24-.49,3.67,3.67,0,0,0,1-.76A3.29,3.29,0,0,0,83,53.07a2.93,2.93,0,0,0-1.24-2.55,6,6,0,0,0-3.55-.88H73.53V62.4h2.86Zm0-5.79h1.32a3.19,3.19,0,0,1,1.73.38A1.44,1.44,0,0,1,80,53.32a2,2,0,0,1-.19.92,1.76,1.76,0,0,1-.55.66,2.51,2.51,0,0,1-.84.39,4.12,4.12,0,0,1-1.09.13h-1Z"/><path class="cls-1" d="M89.57,59.43h4.81l1.06,3h3.09L93.62,49.64H90.41l-5,12.76h3.09Zm2-6.08c.08-.24.15-.48.21-.71s.1-.44.12-.63H92a3.62,3.62,0,0,0,.12.65c.06.24.13.46.2.67l1.41,4.05H90.26Z"/><path class="cls-1" d="M104.38,57.42H105a1.92,1.92,0,0,1,.55.08,1.27,1.27,0,0,1,.47.25,2.27,2.27,0,0,1,.45.47A6.85,6.85,0,0,1,107,59l2,3.44h3.34l-2.48-4a6.48,6.48,0,0,0-.89-1.15,2.86,2.86,0,0,0-1-.64v0a5.43,5.43,0,0,0,1.24-.49,3.84,3.84,0,0,0,1-.76,3.74,3.74,0,0,0,.63-1,3.33,3.33,0,0,0,.22-1.24,2.93,2.93,0,0,0-1.23-2.55,6.06,6.06,0,0,0-3.55-.88h-4.69V62.4h2.86Zm0-5.79h1.32a3.18,3.18,0,0,1,1.72.38,1.42,1.42,0,0,1,.58,1.31,2,2,0,0,1-.2.92,1.83,1.83,0,0,1-.54.66,2.71,2.71,0,0,1-.84.39,4.18,4.18,0,0,1-1.09.13h-1Z"/><path class="cls-1" d="M117.74,62.4h2.86V57.78l4.4-8.14h-3l-2.38,4.87a3.36,3.36,0,0,0-.2.43c0,.14-.1.3-.14.46h0c-.08-.23-.14-.43-.19-.58a3.66,3.66,0,0,0-.14-.34l-2.28-4.84h-3.16l4.3,8.18Z"/><path class="cls-1" d="M163.51,40.66V.13H70L0,0V71H163.51V40.66ZM161.23,2.4V40.48H70V2.4ZM46.88,10.24h7.85q8.42,0,8.41,7.06a6.77,6.77,0,0,1-2.41,5.4,9.57,9.57,0,0,1-6.45,2.06H51.89V32.4h-5ZM27.17,16.57h4.91v2.51h.06a5.62,5.62,0,0,1,5.1-2.89q5.28,0,5.28,6.52V32.4H37.63V23.6q0-3.68-2.64-3.67a2.62,2.62,0,0,0-2.09,1,3.68,3.68,0,0,0-.82,2.47v9H27.17Zm-19-6.33H16q8.4,0,8.41,7.06A6.75,6.75,0,0,1,22,22.7a9.54,9.54,0,0,1-6.44,2.06H13.15V32.4h-5ZM161.23,68.76H2.28V42.94h159Z"/><path class="cls-1" d="M57.86,17.49q0-3.42-4-3.42h-2V21h2C56.53,21,57.86,19.81,57.86,17.49Z"/><path class="cls-1" d="M19.12,17.49q0-3.42-4-3.42h-2V21h2C17.79,21,19.12,19.81,19.12,17.49Z"/><path class="cls-1" d="M82,29.72q3.07,3.16,8.46,3.16a15.4,15.4,0,0,0,6.69-1.24V26.83a11,11,0,0,1-5.65,1.5,6.73,6.73,0,0,1-5.13-2,7.56,7.56,0,0,1-1.91-5.41,7.67,7.67,0,0,1,2-5.61,7.1,7.1,0,0,1,5.32-2.07,10.29,10.29,0,0,1,5.35,1.4V9.56A17,17,0,0,0,91.4,8.7a12.11,12.11,0,0,0-9,3.49,12.37,12.37,0,0,0-3.47,9.1A11.55,11.55,0,0,0,82,29.72Z"/><path class="cls-1" d="M101.88,30.32a8.45,8.45,0,0,0,2.92,1.82,10.65,10.65,0,0,0,3.79.64,10.92,10.92,0,0,0,3.87-.66,8.85,8.85,0,0,0,3-1.88,8.17,8.17,0,0,0,1.92-2.9,10.05,10.05,0,0,0,.67-3.75,9.77,9.77,0,0,0-.66-3.66,8.25,8.25,0,0,0-1.86-2.82,8.42,8.42,0,0,0-2.87-1.82,10.59,10.59,0,0,0-3.74-.64,11,11,0,0,0-4,.68,8.58,8.58,0,0,0-3,1.9A8.29,8.29,0,0,0,100,20.16,10.06,10.06,0,0,0,99.33,24a9.28,9.28,0,0,0,.67,3.58A8,8,0,0,0,101.88,30.32ZM105,21.54a5.32,5.32,0,0,1,.78-1.7,3.56,3.56,0,0,1,1.26-1.09,3.82,3.82,0,0,1,1.72-.38,3.2,3.2,0,0,1,2.83,1.44,7,7,0,0,1,1,4,8.62,8.62,0,0,1-.25,2.19,4.79,4.79,0,0,1-.76,1.66,3.44,3.44,0,0,1-1.24,1,3.77,3.77,0,0,1-1.68.36,3.46,3.46,0,0,1-1.63-.37,3.36,3.36,0,0,1-1.23-1.06,5,5,0,0,1-.78-1.68,9.1,9.1,0,0,1,0-4.4Z"/><path class="cls-1" d="M126.9,25.92h.18a1.76,1.76,0,0,1,.66.12,2,2,0,0,1,.58.4,4.57,4.57,0,0,1,.61.75c.2.32.44.7.7,1.16L132,32.47h6l-3.23-5.1a9.72,9.72,0,0,0-1.44-1.83,4.18,4.18,0,0,0-1.71-1v-.05a7.65,7.65,0,0,0,1.65-.7,5.59,5.59,0,0,0,1.29-1.05,4.5,4.5,0,0,0,.84-1.35,4.42,4.42,0,0,0,.3-1.66c0-3.18-2.35-4.76-7.06-4.76h-6.93V32.47h5.18Zm0-7.7h.93a3.26,3.26,0,0,1,1.85.42,1.73,1.73,0,0,1,.61,1.56A2.33,2.33,0,0,1,129.6,22a2.57,2.57,0,0,1-1.83.65h-.87Z"/><polygon class="cls-1" points="152.19 28.95 145.74 28.95 145.74 25.43 151.27 25.43 151.27 21.89 145.74 21.89 145.74 18.48 151.75 18.48 151.75 14.95 140.55 14.95 140.55 32.48 152.19 32.48 152.19 28.95"/></g></g></svg>