<svg xmlns="http://www.w3.org/2000/svg" viewBox="0 0 163.12 70.88"><defs><style>.cls-1{fill:#fff;}</style></defs><title>pnp-pnpjs</title><g id="Layer_2" data-name="Layer 2"><g id="Layer_1-2" data-name="Layer 1"><path class="cls-1" d="M48.19,62.25h-8V49.53h2.86V60.1h5.11Z"/><path class="cls-1" d="M54.92,62.25H52.06V49.53h2.86Z"/><path class="cls-1" d="M69.56,58.52a3.36,3.36,0,0,1-.35,1.54,3.52,3.52,0,0,1-1,1.18,4.43,4.43,0,0,1-1.54.75,6.85,6.85,0,0,1-2,.26H59.82V49.53h4.69a5.8,5.8,0,0,1,3.31.78,2.5,2.5,0,0,1,1.12,2.16,2.74,2.74,0,0,1-.67,1.84,3.85,3.85,0,0,1-1.93,1.11v0a4.43,4.43,0,0,1,1.39.35,3.18,3.18,0,0,1,1,.67,2.58,2.58,0,0,1,.62.93A3.17,3.17,0,0,1,69.56,58.52ZM66,52.89a1.14,1.14,0,0,0-.52-1.11,3.54,3.54,0,0,0-1.63-.29H62.67V54.7h1.09a2.57,2.57,0,0,0,1.63-.45A1.65,1.65,0,0,0,66,52.89Zm.64,5.61A1.59,1.59,0,0,0,66,57.11,3.45,3.45,0,0,0,64,56.68H62.67v3.61H64.2A3.13,3.13,0,0,0,66,59.87,1.5,1.5,0,0,0,66.59,58.5Z"/><path class="cls-1" d="M84.1,62.25H80.76l-2-3.43a6.62,6.62,0,0,0-.48-.73,2.64,2.64,0,0,0-.45-.48,1.34,1.34,0,0,0-.47-.25,2.28,2.28,0,0,0-.54-.07h-.64v5H73.36V49.53H78a6.09,6.09,0,0,1,3.54.87A2.94,2.94,0,0,1,82.81,53a3.24,3.24,0,0,1-.22,1.23,3.19,3.19,0,0,1-.63,1A3.67,3.67,0,0,1,81,56a5.18,5.18,0,0,1-1.23.49v0a2.7,2.7,0,0,1,1,.63,6.77,6.77,0,0,1,.9,1.15Zm-4.27-9a1.42,1.42,0,0,0-.58-1.31,3.15,3.15,0,0,0-1.72-.38H76.22v3.78h.94a4.12,4.12,0,0,0,1.09-.13,2.51,2.51,0,0,0,.84-.39,1.8,1.8,0,0,0,.54-.65A2,2,0,0,0,79.83,53.2Z"/><path class="cls-1" d="M98.3,62.25H95.22l-1.06-3h-4.8l-1,3H85.26L90.2,49.53h3.2Zm-4.8-5-1.4-4c-.08-.21-.14-.43-.21-.67a3.53,3.53,0,0,1-.11-.65h-.06c0,.18-.07.39-.13.63s-.13.47-.2.71l-1.34,4Z"/><path class="cls-1" d="M112,62.25h-3.34l-2-3.43a6.62,6.62,0,0,0-.48-.73,2.33,2.33,0,0,0-.45-.48,1.34,1.34,0,0,0-.47-.25,2.28,2.28,0,0,0-.54-.07h-.64v5h-2.86V49.53H106a6.09,6.09,0,0,1,3.54.87A2.94,2.94,0,0,1,110.73,53a3.24,3.24,0,0,1-.22,1.23,3.19,3.19,0,0,1-.63,1,3.79,3.79,0,0,1-1,.76,5.43,5.43,0,0,1-1.24.49v0a2.7,2.7,0,0,1,1,.63,6.77,6.77,0,0,1,.9,1.15Zm-4.27-9a1.42,1.42,0,0,0-.58-1.31,3.15,3.15,0,0,0-1.72-.38h-1.31v3.78h.94a4.12,4.12,0,0,0,1.09-.13,2.51,2.51,0,0,0,.84-.39,1.8,1.8,0,0,0,.54-.65A2,2,0,0,0,107.75,53.2Z"/><path class="cls-1" d="M124.71,49.53l-4.39,8.12v4.6h-2.85V57.68l-4.29-8.15h3.15l2.27,4.83a1.9,1.9,0,0,1,.14.33c.05.16.12.35.2.58h0c0-.16.09-.31.14-.46s.13-.29.2-.43l2.37-4.85Z"/><path class="cls-1" d="M160.85,42.84V68.6H2.27V42.84H160.85m2.27-2.28H0V70.88H163.12V40.56Z"/><path class="cls-1" d="M53.73,14h-2v6.89h2q4,0,4-3.48C57.73,15.17,56.4,14,53.73,14Z"/><path class="cls-1" d="M15.08,14h-2v6.89h2c2.66,0,4-1.16,4-3.48S17.74,14,15.08,14Z"/><path class="cls-1" d="M0,0V42.54l69.88.11V.12ZM21.93,22.65a9.57,9.57,0,0,1-6.43,2.06H13.12v7.61h-5V10.22H16q8.39,0,8.39,7A6.74,6.74,0,0,1,21.93,22.65Zm20.49,9.67H37.54V23.55c0-2.45-.87-3.67-2.63-3.67a2.62,2.62,0,0,0-2.09,1A3.68,3.68,0,0,0,32,23.32v9H27.11V16.54H32V19h.06a5.63,5.63,0,0,1,5.1-2.88c3.5,0,5.26,2.17,5.26,6.51Zm18.16-9.67a9.55,9.55,0,0,1-6.43,2.06H51.77v7.61h-5V10.22H54.6q8.38,0,8.39,7A6.74,6.74,0,0,1,60.58,22.65Z"/><path class="cls-1" d="M160.85,2.4v38h-91V2.4h91M163.12.13H67.58V42.66h95.54V.13Z"/><path class="cls-1" d="M109,23.14c0,3.12-.72,5.52-2.17,7.18a7.9,7.9,0,0,1-6.29,2.48,9,9,0,0,1-3.4-.63V27.24a4.91,4.91,0,0,0,3,1q3.59,0,3.59-5.34V9.07H109Z"/><path class="cls-1" d="M117,31.5V26.3a10.18,10.18,0,0,0,3.08,1.78,9.74,9.74,0,0,0,3.35.59,7.36,7.36,0,0,0,1.73-.18,4.06,4.06,0,0,0,1.24-.49,2.12,2.12,0,0,0,.74-.75,1.91,1.91,0,0,0,.24-.94,2,2,0,0,0-.39-1.22,4.06,4.06,0,0,0-1.06-1,11.31,11.31,0,0,0-1.61-.88c-.61-.28-1.28-.57-2-.86a10.23,10.23,0,0,1-4.07-2.78,6.06,6.06,0,0,1-1.34-4,6,6,0,0,1,2.72-5.29,8.85,8.85,0,0,1,2.92-1.24,14.83,14.83,0,0,1,3.52-.4,20.53,20.53,0,0,1,3.22.22,12.52,12.52,0,0,1,2.6.67v4.87a8.31,8.31,0,0,0-1.28-.72,10,10,0,0,0-1.42-.51,11,11,0,0,0-2.83-.4,7.42,7.42,0,0,0-1.63.17,4.58,4.58,0,0,0-1.24.48,2.52,2.52,0,0,0-.78.74,1.79,1.79,0,0,0-.27,1,1.82,1.82,0,0,0,.31,1,3.61,3.61,0,0,0,.87.88,9.65,9.65,0,0,0,1.39.81c.54.27,1.15.54,1.84.82A20.24,20.24,0,0,1,129.38,20a8.78,8.78,0,0,1,1.91,1.49,5.74,5.74,0,0,1,1.22,1.89,6.75,6.75,0,0,1,.42,2.48,6.58,6.58,0,0,1-.74,3.28,6,6,0,0,1-2,2.15,8.65,8.65,0,0,1-3,1.18,17,17,0,0,1-3.55.35,19.45,19.45,0,0,1-3.65-.32A11,11,0,0,1,117,31.5Z"/></g></g></svg>