<?xml version="1.0" encoding="UTF-8"?><svg id="b" xmlns="http://www.w3.org/2000/svg" viewBox="0 0 163.25 70.63"><defs><style>.d{fill:#166ea7;}</style></defs><g id="c"><path class="d" d="m40.54,61.69v-2.36c.21.19.46.37.76.52.29.15.6.28.93.39s.65.19.98.25.63.09.91.09c.96,0,1.68-.16,2.15-.48s.71-.79.71-1.4c0-.33-.08-.61-.24-.85-.16-.24-.38-.46-.66-.66-.28-.2-.61-.39-1-.57-.38-.18-.79-.37-1.23-.57-.47-.25-.91-.5-1.31-.76s-.76-.54-1.05-.85-.53-.66-.7-1.05c-.17-.39-.26-.85-.26-1.38,0-.65.15-1.21.44-1.69.29-.48.68-.87,1.16-1.18.48-.31,1.02-.54,1.63-.69.61-.15,1.23-.23,1.87-.23,1.44,0,2.5.16,3.16.49v2.26c-.78-.56-1.79-.85-3.02-.85-.34,0-.68.03-1.02.1s-.64.17-.91.32c-.27.15-.48.34-.65.57-.17.23-.25.51-.25.84,0,.31.06.57.19.8.13.22.32.43.56.62.25.19.55.37.91.54s.77.37,1.24.57c.48.25.94.51,1.36.79.43.28.8.58,1.13.91.32.33.58.7.77,1.11.19.41.28.87.28,1.39,0,.7-.14,1.29-.42,1.77-.28.48-.66.87-1.14,1.17-.48.3-1.03.52-1.65.65-.62.13-1.28.2-1.97.2-.23,0-.51-.02-.85-.05s-.68-.09-1.04-.15c-.35-.07-.69-.15-1-.25-.31-.1-.57-.21-.76-.33Zm22.71.55h-2.51l-1.24-3.51h-5.43l-1.19,3.51h-2.5l5.17-13.81h2.58l5.13,13.81Zm-4.36-5.38l-1.92-5.51c-.06-.18-.12-.47-.18-.87h-.04c-.06.37-.12.65-.19.87l-1.9,5.51h4.23Zm21.09,5.38h-2.27v-8.94c0-.73.05-1.63.13-2.69h-.04c-.14.6-.27,1.04-.38,1.3l-4.12,10.32h-1.58l-4.13-10.25c-.12-.3-.24-.76-.37-1.38h-.04c.05.55.08,1.45.08,2.71v8.92h-2.12v-13.81h3.23l3.63,9.2c.28.71.46,1.23.54,1.58h.05c.24-.73.43-1.26.58-1.62l3.7-9.16h3.11v13.81Zm5.68-5.01v5.01h-2.28v-13.81h4.19c1.59,0,2.82.37,3.69,1.11.87.74,1.31,1.78,1.31,3.12s-.46,2.44-1.37,3.29c-.91.85-2.14,1.28-3.7,1.28h-1.84Zm0-6.91v5.05h1.48c.98,0,1.73-.23,2.24-.68.51-.46.77-1.1.77-1.93,0-1.62-.94-2.44-2.83-2.44h-1.67Zm16.89,11.92h-7.65v-13.81h2.29v11.87h5.35v1.94Zm9.74,0h-7.75v-13.81h7.44v1.95h-5.15v3.91h4.75v1.94h-4.75v4.08h5.46v1.94Zm1.82-.55v-2.36c.21.19.46.37.76.52.29.15.6.28.93.39s.65.19.98.25.63.09.91.09c.96,0,1.68-.16,2.15-.48s.71-.79.71-1.4c0-.33-.08-.61-.24-.85-.16-.24-.38-.46-.66-.66-.28-.2-.61-.39-1-.57-.38-.18-.79-.37-1.23-.57-.47-.25-.91-.5-1.31-.76s-.76-.54-1.05-.85-.53-.66-.7-1.05c-.17-.39-.26-.85-.26-1.38,0-.65.15-1.21.44-1.69.29-.48.68-.87,1.16-1.18.48-.31,1.02-.54,1.63-.69.61-.15,1.23-.23,1.87-.23,1.44,0,2.5.16,3.16.49v2.26c-.78-.56-1.79-.85-3.02-.85-.34,0-.68.03-1.02.1s-.64.17-.91.32c-.27.15-.48.34-.65.57-.17.23-.25.51-.25.84,0,.31.06.57.19.8.13.22.32.43.56.62.25.19.55.37.91.54s.77.37,1.24.57c.48.25.94.51,1.36.79.43.28.8.58,1.13.91.32.33.58.7.77,1.11.19.41.28.87.28,1.39,0,.7-.14,1.29-.42,1.77-.28.48-.66.87-1.14,1.17-.48.3-1.03.52-1.65.65-.62.13-1.28.2-1.97.2-.23,0-.51-.02-.85-.05s-.68-.09-1.04-.15c-.35-.07-.69-.15-1-.25-.31-.1-.57-.21-.76-.33ZM53.78,14.05h-1.96v6.89h1.96c2.66,0,4-1.16,4-3.49s-1.33-3.41-4-3.41Zm-38.68,0h-1.97v6.89h1.97c2.66,0,4-1.16,4-3.49s-1.33-3.41-4-3.41ZM69.93.13h0S0,0,0,0v40.3h0v30.34h163.25V.13h-93.32Zm-23.13,10.1h7.83c5.6,0,8.4,2.34,8.4,7.05,0,2.22-.8,4.02-2.4,5.39-1.61,1.37-3.75,2.06-6.44,2.06h-2.38v7.62h-5.01V10.23Zm-19.67,6.32h4.89v2.5h.06c1.17-1.93,2.87-2.88,5.1-2.88,3.51,0,5.27,2.17,5.27,6.51v9.67h-4.88v-8.78c0-2.45-.87-3.67-2.63-3.67-.84,0-1.54.32-2.09.97-.55.64-.82,1.47-.82,2.46v9.01h-4.89v-15.8Zm-19.01-6.32h7.83c5.6,0,8.4,2.34,8.4,7.05,0,2.22-.8,4.02-2.4,5.39-1.61,1.37-3.75,2.06-6.44,2.06h-2.39v7.62h-5V10.23Zm152.85,58.13H2.28v-25.78l65.35.11h0s93.35,0,93.35,0v25.66Zm-91.05-28.06V2.4h91.05v37.89h-91.05Zm6.6-8.97v-4.65c.7.71,1.46,1.24,2.29,1.59.82.35,1.65.53,2.49.53.49,0,.92-.05,1.29-.16.37-.11.67-.25.92-.44.25-.19.43-.41.55-.67.12-.26.18-.53.18-.83,0-.41-.1-.77-.29-1.09-.19-.32-.46-.61-.79-.89-.33-.27-.73-.53-1.19-.78-.46-.25-.96-.51-1.49-.77-1.35-.68-2.36-1.51-3.03-2.48s-1-2.16-1-3.54c0-1.08.18-2.02.54-2.79s.86-1.42,1.48-1.92,1.35-.87,2.17-1.11c.82-.24,1.69-.36,2.61-.36s1.7.07,2.4.2c.7.13,1.34.33,1.93.6v4.34c-.29-.24-.61-.45-.95-.64-.34-.18-.7-.34-1.06-.46-.36-.12-.72-.21-1.08-.27-.36-.06-.7-.09-1.02-.09-.44,0-.85.05-1.21.15-.36.1-.67.24-.92.43-.25.18-.44.4-.58.66-.14.26-.21.54-.21.86,0,.35.08.66.23.94s.37.54.65.78c.28.25.63.49,1.03.73.4.24.86.48,1.37.73.69.35,1.32.72,1.87,1.11.55.39,1.03.84,1.42,1.33.39.49.7,1.06.91,1.69.21.63.31,1.37.31,2.21,0,1.16-.18,2.14-.55,2.93s-.86,1.43-1.49,1.92c-.63.49-1.36.84-2.2,1.05-.83.21-1.72.32-2.64.32s-1.86-.1-2.72-.29c-.86-.19-1.6-.48-2.23-.87Zm24.97-14.81l-4.38,10.06v5.55h-3.85v-5.49l-4.27-10.12h4.25l1.72,4.95s.05.18.11.4.13.51.22.88h.05c.09-.53.19-.94.3-1.23l1.75-5h4.1Zm14.9,15.61h-3.76l-4.96-8.51c-.18-.28-.33-.54-.45-.78-.12-.24-.21-.44-.28-.58h-.04c.02.28.04.64.05,1.08.01.44.02.95.02,1.52v7.27h-3.54v-15.61h3.98l4.74,8.19c.14.22.26.45.38.69.12.24.23.46.34.68h.04c-.02-.18-.04-.47-.05-.85-.01-.38-.02-.84-.02-1.39v-7.32h3.54v15.61Zm13.75-12.31h-3.8v12.31h-3.85v-12.31h-3.8v-3.3h11.44v3.3Zm10.95,12.31h-8.64v-15.61h8.31v3.15h-4.46v3.03h4.1v3.15h-4.1v3.14h4.79v3.14Zm14.37,0h-4.45l-1.78-3.98c-.1-.22-.17-.43-.22-.62-.05-.19-.11-.42-.16-.67h-.04c-.02.13-.06.28-.11.46-.05.18-.13.39-.23.62l-1.87,4.18h-4.48l4.34-7.81-3.96-7.8h4.56l1.45,3.66c.16.37.3.81.42,1.32h.05c.04-.17.09-.37.15-.6.06-.23.16-.48.3-.76l1.68-3.62h4.22l-4.08,7.74,4.2,7.87Z"/></g></svg>